<?xml version="1.0" encoding="UTF-8"?>
<svg version="1.1" xmlns="http://www.w3.org/2000/svg" width="920" height="271">
<path d="M0 0 C18.15 0 36.3 0 55 0 C55 57.75 55 115.5 55 175 C78.1 175 101.2 175 125 175 C125 184.24 125 193.48 125 203 C83.75 203 42.5 203 0 203 C0 136.01 0 69.02 0 0 Z " fill="#2B6BAF" transform="translate(0,0)"/>
<path d="M0 0 C14.19 0 28.38 0 43 0 C43 19.47 43 38.94 43 59 C52.9 59 62.8 59 73 59 C73 39.86 73 20.72 73 1 C87.19 1 101.38 1 116 1 C116 45.55 116 90.1 116 136 C101.81 136 87.62 136 73 136 C73 118.18 73 100.36 73 82 C63.1 82 53.2 82 43 82 C43 99.82 43 117.64 43 136 C28.81 136 14.62 136 0 136 C0 91.12 0 46.24 0 0 Z " fill="#2A6BAF" transform="translate(300,67)"/>
<path d="M0 0 C2.50308124 2.19256284 4.87311811 4.45312824 7.20703125 6.82421875 C7.84253906 7.46101563 8.47804688 8.0978125 9.1328125 8.75390625 C23.68043693 24.30147825 28.84202354 45.96051525 28.39453125 66.796875 C27.15972688 86.7338205 21.07872189 104.02552166 6.20703125 117.82421875 C-8.32707052 128.99951241 -26.64629861 133.34672849 -44.79296875 131.82421875 C-62.01972976 129.2679897 -76.50852396 122.4325888 -87.79296875 108.82421875 C-102.54415896 88.69991373 -107.7514434 65.06453199 -103.96826172 40.43066406 C-101.07837688 24.14929403 -92.60298493 8.85357628 -79.2265625 -1.08203125 C-56.07546764 -16.62586734 -22.331856 -17.39698433 0 0 Z M-50.79296875 12.82421875 C-54.78079262 20.09115508 -56.79078168 27.64357543 -57.79296875 35.82421875 C-57.90382812 36.68789062 -58.0146875 37.5515625 -58.12890625 38.44140625 C-60.38926138 60.00641604 -62.00905403 90.86948767 -47.79296875 108.82421875 C-44.8209508 112.1146672 -41.3889718 112.63031362 -37.09765625 112.92578125 C-33.11800654 112.75040686 -30.52263881 111.60625659 -27.79296875 108.82421875 C-18.57904695 95.6212108 -18.28691643 78.96174215 -18.40185547 63.46118164 C-18.41793445 60.89219931 -18.40190875 58.32479445 -18.3828125 55.75585938 C-18.37168242 47.55720517 -18.73292351 39.58512806 -20.1328125 31.49609375 C-20.30793869 30.48150841 -20.30793869 30.48150841 -20.48660278 29.44642639 C-22.06807078 21.2814488 -25.4388367 13.35766056 -31.79296875 7.82421875 C-39.56531497 5.23343668 -45.74105002 6.08412768 -50.79296875 12.82421875 Z " fill="#2B6BAE" transform="translate(244.79296875,76.17578125)"/>
<path d="M0 0 C9.83897581 7.50120263 13.29060337 23.09704138 16.71875 34.3671875 C17.06553802 35.48977966 17.41232605 36.61237183 17.7696228 37.76898193 C18.89885001 41.42893747 20.01980626 45.09136791 21.140625 48.75390625 C21.92701679 51.30868527 22.71387618 53.86331487 23.50146484 56.41772461 C24.92967476 61.05185909 26.3557366 65.68664479 27.77921104 70.32223606 C30.25469633 78.38313377 32.74454855 86.43950271 35.24255371 94.49344826 C36.23732631 97.70082162 37.23139622 100.90841271 38.22558594 104.1159668 C39.36759905 107.80043087 40.5097179 111.48486166 41.65246582 115.1690979 C42.70461741 118.5628179 43.75491676 121.95710541 44.8046875 125.3515625 C45.1194101 126.36539001 45.43413269 127.37921753 45.75839233 128.42376709 C46.04131134 129.3397467 46.32423035 130.25572632 46.61572266 131.19946289 C46.86343414 131.99937149 47.11114563 132.79928009 47.36636353 133.62342834 C47.890625 135.44140625 47.890625 135.44140625 47.890625 136.44140625 C33.040625 136.44140625 18.190625 136.44140625 2.890625 136.44140625 C0.81591129 131.6004076 -0.87243428 127.25855047 -2.296875 122.25390625 C-2.64105469 121.06410156 -2.98523438 119.87429687 -3.33984375 118.6484375 C-4.109375 115.44140625 -4.109375 115.44140625 -4.109375 111.44140625 C-17.969375 111.77140625 -31.829375 112.10140625 -46.109375 112.44140625 C-48.419375 120.36140625 -50.729375 128.28140625 -53.109375 136.44140625 C-60.699375 136.44140625 -68.289375 136.44140625 -76.109375 136.44140625 C-74.76917769 130.41051837 -73.34761358 124.59978931 -71.53076172 118.72241211 C-71.2799736 117.90133469 -71.02918549 117.08025726 -70.77079773 116.23429871 C-69.94700067 113.54054569 -69.118188 110.84836728 -68.2890625 108.15625 C-67.70551963 106.25369388 -67.12220067 104.35106907 -66.53909302 102.44837952 C-65.31572314 98.45928344 -64.08991035 94.47094882 -62.86230469 90.4831543 C-61.31156915 85.44515152 -59.76649759 80.40543359 -58.22304916 75.36519432 C-47.46840595 40.25514439 -47.46840595 40.25514439 -42.5546875 25.1953125 C-42.26826385 24.2982811 -41.98184021 23.40124969 -41.68673706 22.47703552 C-38.55248328 13.0517751 -34.3904386 4.47134522 -25.671875 -0.87109375 C-17.95559922 -4.45156263 -7.48665595 -3.97901899 0 0 Z M-25.109375 37.44140625 C-30.79435646 55.68222609 -35.97551891 74.03850674 -41.109375 92.44140625 C-30.879375 92.44140625 -20.649375 92.44140625 -10.109375 92.44140625 C-12.97449575 80.0236516 -16.08855885 67.69527792 -19.359375 55.37890625 C-19.82312766 53.62570684 -20.28667033 51.87245187 -20.75 50.11914062 C-21.86738413 45.89258798 -22.98756438 41.66678607 -24.109375 37.44140625 C-24.439375 37.44140625 -24.769375 37.44140625 -25.109375 37.44140625 Z " fill="#2B6BAE" transform="translate(713.109375,66.55859375)"/>
<path d="M0 0 C15.51 0 31.02 0 47 0 C49.97840961 6.55250115 52.90980326 13.04567735 55.59375 19.7109375 C55.90775757 20.48579498 56.22176514 21.26065247 56.54528809 22.05899048 C57.20170935 23.68015518 57.857018 25.30177082 58.51123047 26.92382812 C59.4957108 29.36436701 60.48388582 31.80338401 61.47265625 34.2421875 C65.06980075 43.12889242 68.60054547 52.03543843 72 61 C75.7954036 51.99138219 79.45791783 42.93300843 83.08398438 33.85522461 C83.99741048 31.56898139 84.9126771 29.28348117 85.828125 26.99804688 C88.97465277 19.13204601 92.07572514 11.2553386 95.0546875 3.32397461 C96 1 96 1 97 0 C98.70772358 -0.08713831 100.41898649 -0.10700007 102.12890625 -0.09765625 C103.68061523 -0.09282227 103.68061523 -0.09282227 105.26367188 -0.08789062 C106.35228516 -0.07951172 107.44089844 -0.07113281 108.5625 -0.0625 C110.2012207 -0.05573242 110.2012207 -0.05573242 111.87304688 -0.04882812 C114.58208495 -0.03699826 117.29101599 -0.02051543 120 0 C118.10392029 5.91646796 115.99074526 11.67887714 113.5859375 17.40625 C113.25928604 18.19154083 112.93263458 18.97683167 112.59608459 19.78591919 C111.525263 22.35848726 110.45009024 24.92921327 109.375 27.5 C108.61432168 29.32586624 107.85399288 31.15187813 107.09399414 32.97802734 C105.5157241 36.76946593 103.93596029 40.56027651 102.35498047 44.35058594 C98.70471163 53.10411233 95.07059231 61.86433397 91.4375 70.625 C91.08653259 71.47094727 90.73556519 72.31689453 90.3739624 73.18847656 C85.21958183 85.61353552 80.09861708 98.05196399 75 110.5 C69.36300247 124.26235362 63.69582829 138.01188504 58 151.75 C57.65437012 152.584104 57.30874023 153.41820801 56.95263672 154.27758789 C54.97790626 159.04220467 52.99916132 163.80512282 51.01464844 168.56567383 C50.30630967 170.26510738 49.59868388 171.96483821 48.89160156 173.66479492 C47.78452059 176.3245069 46.67396744 178.98274355 45.5625 181.640625 C45.22017334 182.46423523 44.87784668 183.28784546 44.52514648 184.13641357 C42.11443465 189.88556535 42.11443465 189.88556535 41 191 C39.21928754 191.08726223 37.4351686 191.10699041 35.65234375 191.09765625 C34.57275391 191.09443359 33.49316406 191.09121094 32.38085938 191.08789062 C31.24455078 191.07951172 30.10824219 191.07113281 28.9375 191.0625 C27.79732422 191.05798828 26.65714844 191.05347656 25.48242188 191.04882812 C22.65489649 191.03699747 19.8274736 191.0205141 17 191 C19.070501 184.47074318 21.49458148 178.15104714 24.1328125 171.83203125 C24.72701492 170.39787117 24.72701492 170.39787117 25.33322144 168.93473816 C26.59423659 165.89277443 27.85945079 162.85257983 29.125 159.8125 C29.95081862 157.82369133 30.77634161 155.83475988 31.6015625 153.84570312 C32.00961121 152.86334686 32.41765991 151.8809906 32.83807373 150.86886597 C33.65888503 148.88762044 34.47631655 146.90497128 35.29034424 144.92092896 C37.36103347 139.88430593 39.48684281 134.88603822 41.72949219 129.92333984 C42.37807693 128.44917854 42.37807693 128.44917854 43.0397644 126.94523621 C43.85845674 125.08703628 44.69922175 123.23834054 45.56594849 121.40205383 C47.47692475 116.99765 48.44931871 114.06385397 46.95581055 109.39575195 C46.33420898 107.91737696 45.68224393 106.45138704 45 105 C44.43040761 103.6219516 43.86131181 102.24369783 43.29272461 100.86523438 C42.66669085 99.4396018 42.03637417 98.01584421 41.40234375 96.59375 C41.05586792 95.80764343 40.70939209 95.02153687 40.35241699 94.21160889 C39.2177832 91.63943313 38.07760391 89.06975519 36.9375 86.5 C36.13701547 84.68736683 35.33697438 82.87453777 34.53735352 81.06152344 C32.87042149 77.28306969 31.20157584 73.50547027 29.53125 69.72851562 C20.75110229 49.86769322 11.98639909 29.99718508 3.375 10.0625 C3.01462646 9.23459961 2.65425293 8.40669922 2.28295898 7.55371094 C0 2.23563479 0 2.23563479 0 0 Z " fill="#2B6BAE" transform="translate(514,68)"/>
<path d="M0 0 C2.00324506 0.01508639 4.0065012 0.02876774 6.00976562 0.04101562 C10.86118414 0.07109883 15.71102276 0.12987137 20.5625 0.1875 C20.5625 7.1175 20.5625 14.0475 20.5625 21.1875 C18.273125 21.22488281 15.98375 21.26226562 13.625 21.30078125 C11.38418546 21.34711959 9.14352987 21.39830806 6.90283203 21.44995117 C5.35703357 21.48300862 3.81111996 21.51109903 2.26513672 21.53393555 C-9.47043293 21.50598131 -9.47043293 21.50598131 -20.4375 25.1875 C-22.7212984 28.04669024 -22.7212984 28.04669024 -22.5625 31.5 C-20.9804158 36.68572043 -17.98186963 38.44659065 -13.4375 41.1875 C-9.94861539 42.74215187 -6.37840928 43.93939929 -2.75 45.125 C10.22970096 49.62283068 23.70341392 54.29874034 30.875 66.875 C35.98982087 78.20224279 35.76265521 92.37807768 32.5625 104.1875 C27.54778314 116.7920586 20.91272668 125.12298571 8.5625 131.1875 C-0.98941678 134.8514442 -10.15493603 135.33355629 -20.27734375 135.28515625 C-21.39943741 135.2837413 -22.52153107 135.28232635 -23.67762756 135.28086853 C-27.24344608 135.275294 -30.80920062 135.26274616 -34.375 135.25 C-36.8001293 135.24498171 -39.22525959 135.24041938 -41.65039062 135.23632812 C-47.57945154 135.22533291 -53.50846494 135.20808583 -59.4375 135.1875 C-59.4375 128.2575 -59.4375 121.3275 -59.4375 114.1875 C-56.73820313 114.13851562 -54.03890625 114.08953125 -51.2578125 114.0390625 C-48.6132299 113.98489129 -45.96873016 113.92764757 -43.32421875 113.87011719 C-41.50104063 113.83208059 -39.67779391 113.79718594 -37.85449219 113.765625 C-21.85965067 114.28406188 -21.85965067 114.28406188 -7.375 109 C-4.97318985 105.51350139 -4.4375 103.42064757 -4.4375 99.1875 C-5.91350581 93.48027755 -8.12024308 91.33701645 -12.92944336 88.45898438 C-18.8526953 85.45613262 -25.31246028 83.69171563 -31.61914062 81.66992188 C-43.54907153 77.72585461 -56.12352692 72.72683011 -62.4375 61.1875 C-67.46837742 49.70068975 -66.85983156 35.78569032 -62.4375 24.1875 C-57.08189472 13.52634182 -48.50884409 7.13770031 -37.4375 3.1875 C-25.02800141 -0.32411987 -12.79595148 -0.16927833 0 0 Z " fill="#2B6BAE" transform="translate(864.4375,67.8125)"/>
<path d="M0 0 C13.86 0 27.72 0 42 0 C42 44.55 42 89.1 42 135 C28.14 135 14.28 135 0 135 C-0.1529694 117.5458793 -0.30179409 100.09174021 -0.4429636 82.63752079 C-0.5086408 74.53379343 -0.57621169 66.43009003 -0.64819336 58.32641602 C-0.71090515 51.26580682 -0.7701121 44.20517857 -0.82505554 37.14450449 C-0.8542894 33.40363594 -0.88531538 29.6628011 -0.92053413 25.92198372 C-0.95972043 21.75278944 -0.99108384 17.58357245 -1.02172852 13.41430664 C-1.04114754 11.54020111 -1.04114754 11.54020111 -1.06095886 9.62823486 C-1.06799835 8.49936356 -1.07503784 7.37049225 -1.08229065 6.20741272 C-1.09058679 5.22017243 -1.09888292 4.23293215 -1.10743046 3.21577549 C-1 1 -1 1 0 0 Z " fill="#2A6BAE" transform="translate(454,68)"/>
<path d="M0 0 C3.00559787 4.48907905 1.98323147 8.94285445 1 14 C-0.00328856 17.27798022 -1.28943979 20.3724637 -2.6875 23.5 C-3.04980713 24.32951172 -3.41211426 25.15902344 -3.78540039 26.01367188 C-9.60948921 39.1156203 -17.53396304 53.56776929 -31 60 C-35.32530653 61.46923111 -38.60152334 62.46615889 -43 61 C-41.64401019 57.22211794 -39.91839446 54.24252141 -37.5625 51 C-35.20762402 47.74487985 -33.02646488 44.47039857 -31 41 C-31.62648438 40.61328125 -32.25296875 40.2265625 -32.8984375 39.828125 C-34.12433594 39.04695313 -34.12433594 39.04695313 -35.375 38.25 C-36.59316406 37.48429687 -36.59316406 37.48429687 -37.8359375 36.703125 C-40.14504967 34.88584538 -41.04523442 33.75413148 -42 31 C-42.88035308 21.73795201 -37.19413509 13.40182208 -31.5625 6.5625 C-23.31841778 -2.33819054 -11.21346534 -4.67227722 0 0 Z " fill="#2C6AAC" transform="translate(798,22)"/>
<path d="M0 0 C1.19367188 -0.01675781 2.38734375 -0.03351562 3.6171875 -0.05078125 C10.91107973 0.70459957 14.87715032 4.534102 19.41796875 9.92578125 C23.57949027 15.74429304 23.55456203 21.68146757 22.7265625 28.6328125 C21.16091123 35.60707727 16.81935188 40.27900075 11.125 44.3125 C5.05045912 47.21194472 -1.72781915 47.40277383 -8.22265625 45.6953125 C-14.4399912 42.98795663 -18.12197762 37.93861478 -21.015625 31.953125 C-23.05133691 25.69793749 -23.03226865 17.9215243 -20.3125 11.875 C-15.66759051 4.05634453 -8.96608617 0.02892286 0 0 Z " fill="#2B6BAD" transform="translate(474.875,-0.3125)"/>
<path d="M0 0 C0.5625 1.9375 0.5625 1.9375 1 4 C0 5 0 5 -3.5625 5.0625 C-4.696875 5.041875 -5.83125 5.02125 -7 5 C-7.66 7.64 -8.32 10.28 -9 13 C-5.7 13 -2.4 13 1 13 C1.226875 11.618125 1.45375 10.23625 1.6875 8.8125 C2.7345013 4.23457709 3.98322453 1.70695738 8 -1 C10.80591433 -1.39563913 13.14379531 -1.24205125 16 -1 C16.495 1.475 16.495 1.475 17 4 C14.07175348 4.97608217 12.04386724 5.08226668 9 5 C8.34 7.64 7.68 10.28 7 13 C8.98 13 10.96 13 13 13 C13 14.65 13 16.3 13 18 C10.69 18 8.38 18 6 18 C5.90203125 18.80179688 5.8040625 19.60359375 5.703125 20.4296875 C4.77021103 27.52305062 3.61449231 34.55243615 2.1875 41.5625 C2.04666992 42.32353027 1.90583984 43.08456055 1.76074219 43.86865234 C0.69159442 48.8918612 -0.7514809 51.78524519 -5 55 C-7.85567413 55.62296556 -10.03992426 55.25085388 -13 55 C-14.125 51.25 -14.125 51.25 -13 49 C-10.69 49 -8.38 49 -6 49 C-5.78065796 47.80455566 -5.78065796 47.80455566 -5.55688477 46.58496094 C-4.89340534 42.9730642 -4.22797475 39.36152961 -3.5625 35.75 C-3.33240234 34.49574219 -3.10230469 33.24148437 -2.86523438 31.94921875 C-2.64287109 30.74394531 -2.42050781 29.53867188 -2.19140625 28.296875 C-1.98717041 27.18666992 -1.78293457 26.07646484 -1.57250977 24.93261719 C-1.11848872 22.60694519 -0.57470634 20.29882534 0 18 C-3.3 18 -6.6 18 -10 18 C-10.20363159 19.27061279 -10.20363159 19.27061279 -10.41137695 20.56689453 C-10.92356384 23.73278604 -11.4445668 26.89706828 -11.97143555 30.06054688 C-12.19694234 31.42553289 -12.41900757 32.79109241 -12.63745117 34.15722656 C-12.95348811 36.1297578 -13.28326592 38.10007172 -13.61328125 40.0703125 C-13.80704346 41.25383301 -14.00080566 42.43735352 -14.20043945 43.65673828 C-15.40346032 48.68701849 -16.6356154 52.09041026 -21 55 C-23.04296875 55.1953125 -23.04296875 55.1953125 -25.1875 55.125 C-26.445625 55.08375 -27.70375 55.0425 -29 55 C-29.33 53.68 -29.66 52.36 -30 51 C-27.69 50.34 -25.38 49.68 -23 49 C-20.29742296 38.74249168 -18.14030314 28.38644569 -16 18 C-17.32 18 -18.64 18 -20 18 C-19.67 16.35 -19.34 14.7 -19 13 C-17.68 13 -16.36 13 -15 13 C-14.90203125 12.39671875 -14.8040625 11.7934375 -14.703125 11.171875 C-13.79307967 6.30783959 -13.14550477 3.10912858 -9 0 C-5.93109813 -1.53445094 -3.29905734 -0.54984289 0 0 Z " fill="#2C66A3" transform="translate(805,216)"/>
<path d="M0 0 C1.65 0 3.3 0 5 0 C4.125 7.625 4.125 7.625 3 11 C4.98 10.67 6.96 10.34 9 10 C9.99 7.03 10.98 4.06 12 1 C13.65 0.67 15.3 0.34 17 0 C16.125 7.625 16.125 7.625 15 11 C15.99 11 16.98 11 18 11 C18 12.65 18 14.3 18 16 C16.35 16 14.7 16 13 16 C12.34 18.97 11.68 21.94 11 25 C11.99 25.33 12.98 25.66 14 26 C13.67 27.65 13.34 29.3 13 31 C12.06414063 31.09087891 12.06414063 31.09087891 11.109375 31.18359375 C8.76632566 31.80848559 8.76632566 31.80848559 7.953125 34.28515625 C7.72109375 35.20167969 7.4890625 36.11820313 7.25 37.0625 C7.00765625 37.98160156 6.7653125 38.90070313 6.515625 39.84765625 C6.34546875 40.55792969 6.1753125 41.26820313 6 42 C4.35 42 2.7 42 1 42 C1.875 34.375 1.875 34.375 3 31 C0.69 31 -1.62 31 -4 31 C-4.144375 32.0725 -4.28875 33.145 -4.4375 34.25 C-4.83749442 36.91662949 -5.27591924 39.41399729 -6 42 C-7.65 42 -9.3 42 -11 42 C-10.125 34.375 -10.125 34.375 -9 31 C-9.99 30.67 -10.98 30.34 -12 30 C-12 28.68 -12 27.36 -12 26 C-10.35 26 -8.7 26 -7 26 C-6.34 23.03 -5.68 20.06 -5 17 C-5.99 16.67 -6.98 16.34 -8 16 C-7.67 14.35 -7.34 12.7 -7 11 C-6.37609375 10.93941406 -5.7521875 10.87882813 -5.109375 10.81640625 C-2.76632566 10.19151441 -2.76632566 10.19151441 -1.953125 7.71484375 C-1.72109375 6.79832031 -1.4890625 5.88179687 -1.25 4.9375 C-1.00765625 4.01839844 -0.7653125 3.09929687 -0.515625 2.15234375 C-0.34546875 1.44207031 -0.1753125 0.73179687 0 0 Z M1 16 C0.01 19.3 -0.98 22.6 -2 26 C0.31 26 2.62 26 5 26 C5.99 22.7 6.98 19.4 8 16 C5.69 16 3.38 16 1 16 Z " fill="#2965A5" transform="translate(589,218)"/>
<path d="M0 0 C1.2065625 0.0309375 1.2065625 0.0309375 2.4375 0.0625 C2.29536703 1.95861434 2.14863093 3.85438394 2 5.75 C1.91878906 6.80574219 1.83757813 7.86148438 1.75390625 8.94921875 C1.4375 12.0625 1.4375 12.0625 0.4375 17.0625 C5.3875 16.7325 10.3375 16.4025 15.4375 16.0625 C15.64246094 14.99128906 15.84742188 13.92007813 16.05859375 12.81640625 C16.33052709 11.41923149 16.60267352 10.02209819 16.875 8.625 C17.00970703 7.91794922 17.14441406 7.21089844 17.28320312 6.48242188 C18.32421875 1.17578125 18.32421875 1.17578125 19.4375 0.0625 C21.10367115 0.02186168 22.77138095 0.019779 24.4375 0.0625 C23.73595201 9.06717928 22.0807843 17.83315223 20.375 26.6875 C20.09009819 28.18351828 19.80558997 29.67961156 19.52148438 31.17578125 C18.83135511 34.80556291 18.13591682 38.4343027 17.4375 42.0625 C15.4575 42.0625 13.4775 42.0625 11.4375 42.0625 C11.95303879 35.56399789 12.90417709 29.40023468 14.4375 23.0625 C9.1575 23.0625 3.8775 23.0625 -1.5625 23.0625 C-1.68625 24.7125 -1.81 26.3625 -1.9375 28.0625 C-2.37151918 32.92477287 -3.23484967 37.37146884 -4.5625 42.0625 C-6.5425 42.0625 -8.5225 42.0625 -10.5625 42.0625 C-9.38598943 32.56261613 -7.72665661 23.16290404 -6 13.75 C-5.66705933 11.91538208 -5.66705933 11.91538208 -5.32739258 10.04370117 C-5.11493896 8.89877197 -4.90248535 7.75384277 -4.68359375 6.57421875 C-4.4920874 5.53740967 -4.30058105 4.50060059 -4.10327148 3.43237305 C-3.33863373 0.08143009 -3.33863373 0.08143009 0 0 Z " fill="#2F66A2" transform="translate(617.5625,217.9375)"/>
<path d="M0 0 C1.32 0 2.64 0 4 0 C4.18026664 5.53354216 3.51381894 10.56945438 2.46875 15.99609375 C2.31337769 16.82963882 2.15800537 17.6631839 1.9979248 18.52198792 C1.50450515 21.16163751 1.00239857 23.79954622 0.5 26.4375 C0.16218334 28.23621984 -0.17506212 30.03504706 -0.51171875 31.83398438 C-1.33454389 36.22392589 -2.16515927 40.61232834 -3 45 C-4.65 45 -6.3 45 -8 45 C-8.33 44.34 -8.66 43.68 -9 43 C-10.03125 43.53625 -11.0625 44.0725 -12.125 44.625 C-15.08165621 45.88786328 -15.92360644 46.01322196 -19.25 45.4375 C-22.2417501 43.87363063 -23.28434748 42.86274578 -25 40 C-25.328125 37.44921875 -25.328125 37.44921875 -25.25 34.6875 C-25.22421875 33.72585937 -25.1984375 32.76421875 -25.171875 31.7734375 C-24.96650691 28.45954334 -24.58098079 25.26801694 -24 22 C-23.34 22 -22.68 22 -22 22 C-21.62875 20.8553125 -21.62875 20.8553125 -21.25 19.6875 C-19.83617937 16.64778565 -18.90919965 15.61622203 -16 14 C-11.50260676 12.75604017 -9.20131009 13.15881673 -5 15 C-4.72285156 14.00097656 -4.44570313 13.00195312 -4.16015625 11.97265625 C-3.79444451 10.66922209 -3.42854962 9.36583931 -3.0625 8.0625 C-2.88009766 7.40314453 -2.69769531 6.74378906 -2.50976562 6.06445312 C-1.11328125 1.11328125 -1.11328125 1.11328125 0 0 Z M-15.25 20.5625 C-19.01512318 25.80677871 -19.86117264 31.66784823 -19 38 C-18.34 38.66 -17.68 39.32 -17 40 C-13.71396412 39.91352537 -12.31135286 39.28388055 -9.875 37.0625 C-7.38833397 33.00094548 -5.63272804 28.74546029 -5 24 C-5.63463388 21.73482147 -5.63463388 21.73482147 -7 20 C-10.53971553 18.7687946 -12.11158512 18.38304522 -15.25 20.5625 Z " fill="#2D67A5" transform="translate(902,215)"/>
<path d="M0 0 C2.3125 0.0625 2.3125 0.0625 5 1 C6.6875 4.3125 6.6875 4.3125 8 8 C8.65064629 9.34122393 9.31354391 10.67674634 10 12 C10.20496094 11.21753906 10.40992188 10.43507813 10.62109375 9.62890625 C10.89050781 8.61699219 11.15992188 7.60507812 11.4375 6.5625 C11.70433594 5.55316406 11.97117187 4.54382813 12.24609375 3.50390625 C13 1 13 1 14 0 C16.4375 -0.25 16.4375 -0.25 19 0 C23.95289365 7.42934047 23.31277032 18.32931182 23 27 C21.35 27 19.7 27 18 27 C17.34 23.37 16.68 19.74 16 16 C15.525625 17.629375 15.05125 19.25875 14.5625 20.9375 C13.125 25.875 13.125 25.875 12 27 C10.33382885 27.04063832 8.66611905 27.042721 7 27 C5.66666667 23 4.33333333 19 3 15 C2.34 18.96 1.68 22.92 1 27 C-0.65 27 -2.3 27 -4 27 C-5.53727522 21.9858003 -4.53297029 17.42486778 -3.6875 12.375 C-3.55666016 11.51648437 -3.42582031 10.65796875 -3.29101562 9.7734375 C-2.25827585 3.38741378 -2.25827585 3.38741378 0 0 Z " fill="#2A67A6" transform="translate(897,16)"/>
<path d="M0 0 C3.203693 4.92875846 3.00500924 10.47182304 2 16.125 C0.61172516 21.34929744 -1.54595327 25.65308958 -6.1640625 28.66796875 C-10.76737347 30.76788551 -14.61981657 30.74374279 -19.453125 29.34375 C-21.375 28.5 -21.375 28.5 -23.4375 26.5 C-25.71646373 19.20731607 -24.71909007 12.61273422 -21.64453125 5.703125 C-19.28268113 1.60440664 -16.45241484 -0.75426134 -11.9375 -2.375 C-7.48361808 -2.59226253 -3.83372607 -2.42130068 0 0 Z M-14.625 5.6875 C-18.06677969 11.21893165 -18.79091902 15.05325522 -18.375 21.5 C-17.715 22.49 -17.055 23.48 -16.375 24.5 C-13.5034035 25.16790364 -13.5034035 25.16790364 -10.375 24.5 C-6.17807252 21.4476891 -4.57591104 18.4366221 -3.5859375 13.49609375 C-3.28383716 10.63732939 -3.58776898 8.25530856 -4.375 5.5 C-6.25168319 3.22819646 -6.25168319 3.22819646 -9.25 3.0625 C-12.51588808 3.20591267 -12.51588808 3.20591267 -14.625 5.6875 Z " fill="#2D66A3" transform="translate(841.375,230.5)"/>
<path d="M0 0 C3.01623956 2.92483837 3.20576305 5.71338543 3.375 9.75 C3.11719355 16.67983725 1.93542769 22.60588847 -3.25 27.5 C-6.73019395 30.13762068 -9.57247533 31 -14 31 C-17.29888227 30.30215952 -19.30201106 29.62578319 -21.8125 27.375 C-24.6205743 21.75885141 -24.33610264 16.09854231 -22.78125 10.17578125 C-21.20963572 5.79883549 -19.15464616 2.40663581 -15.2109375 -0.16796875 C-9.98563519 -2.55162259 -5.23913102 -2.3001063 0 0 Z M-16 9 C-18.0417724 14.01162316 -18.23808805 17.73812579 -17 23 C-15.12331681 25.27180354 -15.12331681 25.27180354 -12.125 25.4375 C-8.85911192 25.29408733 -8.85911192 25.29408733 -6.75 22.8125 C-3.30822031 17.28106835 -2.58408098 13.44674478 -3 7 C-3.66 6.01 -4.32 5.02 -5 4 C-10.4903541 3.02393705 -12.69886369 4.69018315 -16 9 Z " fill="#2F66A0" transform="translate(667,230)"/>
<path d="M0 0 C2.88378925 6.44611715 2.40196665 12.85958539 0.0625 19.375 C-1.97744004 23.62761694 -4.35505196 26.46114422 -8.6875 28.4375 C-13.35933011 29.8647574 -17.4897752 29.31861958 -21.9375 27.375 C-25.11070834 24.39410732 -25.17657817 21.29769444 -25.375 17.125 C-25.18042737 10.84791781 -23.69778625 5.53609494 -19.51171875 0.7421875 C-13.76647106 -4.45377294 -6.09182937 -5.10927624 0 0 Z M-17.9375 8.375 C-19.5496907 12.09544008 -19.12693291 16.3969089 -18.9375 20.375 C-18.2775 21.365 -17.6175 22.355 -16.9375 23.375 C-13.10843076 24.05572342 -11.44721161 23.71094629 -8.1875 21.5625 C-5.03436257 17.09555531 -4.13300512 12.80841322 -3.9375 7.375 C-4.65959131 4.13216556 -4.65959131 4.13216556 -6.9375 2.375 C-12.80251855 0.97249556 -14.79050272 3.69946119 -17.9375 8.375 Z " fill="#2F65A0" transform="translate(871.9375,231.625)"/>
<path d="M0 0 C2.92468925 5.24488346 2.03563422 12.36213548 0.59375 18.015625 C-1.41038388 23.06369445 -3.67158398 25.93138878 -8.71484375 28.3046875 C-14.31099487 29.83091053 -17.68050271 29.16735201 -22.71484375 26.3046875 C-26.04932148 21.25880564 -25.36147183 14.7435732 -24.28515625 9.01953125 C-22.6027621 3.62963888 -19.42091534 0.33376253 -14.71484375 -2.6953125 C-9.94702658 -4.65134006 -3.70169458 -3.65953405 0 0 Z M-15.52734375 5.1171875 C-18.2425659 9.07365406 -18.86780749 11.67716339 -18.90234375 16.3671875 C-18.91652344 17.24503906 -18.93070313 18.12289062 -18.9453125 19.02734375 C-18.93713811 21.50393805 -18.93713811 21.50393805 -16.71484375 23.3046875 C-13.12801735 23.77253442 -11.39877494 23.81763589 -8.46484375 21.6171875 C-4.43680347 16.29441999 -3.92694983 10.85115908 -4.71484375 4.3046875 C-6.58736992 2.05054562 -6.58736992 2.05054562 -9.52734375 1.8046875 C-12.98950405 2.02717358 -12.98950405 2.02717358 -15.52734375 5.1171875 Z " fill="#2E65A2" transform="translate(778.71484375,231.6953125)"/>
<path d="M0 0 C2.48038907 3.7205836 2.46337203 5.59796571 2 10 C-0.45103373 13.35882399 -3.00340176 14.95740915 -7 16 C-10.34077264 16.15395266 -13.65853814 16.11678896 -17 16 C-16.81535634 20.34184202 -16.81535634 20.34184202 -15 24 C-12.81360547 24.07258946 -10.62499611 24.08373783 -8.4375 24.0625 C-7.23996094 24.05347656 -6.04242187 24.04445312 -4.80859375 24.03515625 C-3.41833984 24.01775391 -3.41833984 24.01775391 -2 24 C-2.33 25.65 -2.66 27.3 -3 29 C-9.12395886 31.00420472 -13.92958987 31.55401402 -20 29 C-22.98119202 26.10914713 -23.22421675 23.30842437 -23.4375 19.3125 C-23.22406345 13.09500057 -21.62726502 7.13832205 -17.57421875 2.296875 C-12.12783977 -2.60064409 -6.53752044 -2.82859604 0 0 Z M-8 3 C-10.76239351 4.41488448 -12.80363095 5.80363095 -15 8 C-15 8.99 -15 9.98 -15 11 C-9.2025577 11.24428343 -9.2025577 11.24428343 -4 9 C-4.33 7.35 -4.66 5.7 -5 4 C-5.99 3.67 -6.98 3.34 -8 3 Z " fill="#2B65A1" transform="translate(749,230)"/>
<path d="M0 0 C14.19 0 28.38 0 43 0 C43 44.55 43 89.1 43 135 C28.81 135 14.62 135 0 135 C0 117.51 0 100.02 0 82 C0.33 82 0.66 82 1 82 C1 98.83 1 115.66 1 133 C14.53 133 28.06 133 42 133 C42 89.44 42 45.88 42 1 C29.13 1.33 16.26 1.66 3 2 C2.95101563 5.79113281 2.90203125 9.58226563 2.8515625 13.48828125 C2.79758367 17.15197771 2.74026394 20.81560768 2.68261719 24.47924805 C2.64428722 27.02932806 2.60944152 29.57946289 2.578125 32.12963867 C2.53256201 35.79105243 2.47455262 39.4520875 2.4140625 43.11328125 C2.40251129 44.2571077 2.39096008 45.40093414 2.37905884 46.579422 C2.35918915 47.64029526 2.33931946 48.70116852 2.31884766 49.79418945 C2.30552399 50.72906693 2.29220032 51.6639444 2.2784729 52.62715149 C2 55 2 55 0 58 C0 38.86 0 19.72 0 0 Z " fill="#346496" transform="translate(373,68)"/>
<path d="M0 0 C1.98 0 3.96 0 6 0 C5.86722656 0.87140625 5.73445312 1.7428125 5.59765625 2.640625 C4.44457571 10.41760615 3.54585106 18.15698215 3 26 C7.8197282 24.6280687 7.8197282 24.6280687 11.28515625 21.21875 C13.83996868 15.85655813 14.80551338 10.3577853 15.60546875 4.50390625 C16 2 16 2 17 0 C18.65 0 20.3 0 22 0 C22.27289933 6.29429102 21.23375452 12.14011026 20.0625 18.3125 C19.88009766 19.31345703 19.69769531 20.31441406 19.50976562 21.34570312 C18.14074248 28.71851504 18.14074248 28.71851504 17 31 C15.35 31 13.7 31 12 31 C11.67 30.34 11.34 29.68 11 29 C10.154375 29.53625 9.30875 30.0725 8.4375 30.625 C5 32 5 32 1.25 31.4375 C-2 30 -2 30 -3.21484375 28.2109375 C-6.11402458 20.04707506 -1.78043479 8.29749798 0 0 Z " fill="#2E65A0" transform="translate(678,229)"/>
<path d="M0 0 C0 57.75 0 115.5 0 175 C-0.66 174.67 -1.32 174.34 -2 174 C-2 173.34 -2 172.68 -2 172 C-2.99 172 -3.98 172 -5 172 C-5 171.34 -5 170.68 -5 170 C-4.34 169.67 -3.68 169.34 -3 169 C-2.95333318 147.3908397 -2.9180373 125.78168768 -2.89637566 104.17248726 C-2.88605162 94.13955122 -2.87196982 84.10664644 -2.84912109 74.07373047 C-2.82922165 65.33170262 -2.81629177 56.58969741 -2.81182301 47.84764755 C-2.80920977 43.21639764 -2.80304427 38.58521251 -2.78853989 33.95398331 C-2.77501034 29.5989163 -2.77076793 25.24394101 -2.77378464 20.88885498 C-2.77323239 19.28680804 -2.76922747 17.68475817 -2.76158905 16.08272934 C-2.75170001 13.9025422 -2.75400871 11.72270552 -2.75949097 9.54251099 C-2.75672559 7.70906474 -2.75672559 7.70906474 -2.75390434 5.83857918 C-2.70493189 2.8661418 -2.70493189 2.8661418 -5 1 C-1.125 -0 -1.125 -0 0 0 Z " fill="#316599" transform="translate(55,0)"/>
<path d="M0 0 C0 1.65 0 3.3 0 5 C-3.3 5 -6.6 5 -10 5 C-10.33 6.32 -10.66 7.64 -11 9 C-10.15115234 9.63228516 -10.15115234 9.63228516 -9.28515625 10.27734375 C-8.18494141 11.09912109 -8.18494141 11.09912109 -7.0625 11.9375 C-6.33160156 12.48277344 -5.60070312 13.02804688 -4.84765625 13.58984375 C-3 15 -3 15 -2 16 C-1.63582469 20.37010375 -1.47002611 22.94005222 -3.4375 26.875 C-7.01189856 29.83913539 -10.36616647 30.86005201 -15 31 C-17.66223821 30.31014995 -19.56592024 29.34651221 -22 28 C-21.67 26.35 -21.34 24.7 -21 23 C-20.484375 23.165 -19.96875 23.33 -19.4375 23.5 C-16.26636124 24.15049 -13.22781666 24.0620734 -10 24 C-9.67 22.35 -9.34 20.7 -9 19 C-9.84884766 18.47212891 -9.84884766 18.47212891 -10.71484375 17.93359375 C-16.6978852 13.90634441 -16.6978852 13.90634441 -18.1875 9.4375 C-17.97366885 5.51726221 -17.60539839 3.93107319 -15 1 C-9.23452371 -2.5045052 -6.08713085 -2.02904362 0 0 Z " fill="#2963A4" transform="translate(723,230)"/>
<path d="M0 0 C14.19 0 28.38 0 43 0 C43 1.65 43 3.3 43 5 C40.525 4.01 40.525 4.01 38 3 C25.79 3 13.58 3 1 3 C1 45.9 1 88.8 1 133 C14.86 133.33 28.72 133.66 43 134 C43 134.66 43 135.32 43 136 C28.81 136 14.62 136 0 136 C0 91.12 0 46.24 0 0 Z " fill="#346393" transform="translate(300,67)"/>
<path d="M0 0 C1.48831242 0.00667405 2.97660807 0.01863442 4.46484375 0.03515625 C5.22345703 0.03966797 5.98207031 0.04417969 6.76367188 0.04882812 C8.64326246 0.06064945 10.52281274 0.07858547 12.40234375 0.09765625 C12.78453142 1.75380282 13.11629477 3.42222649 13.40234375 5.09765625 C13.07234375 5.42765625 12.74234375 5.75765625 12.40234375 6.09765625 C10.75234375 6.09765625 9.10234375 6.09765625 7.40234375 6.09765625 C7.40234375 12.69765625 7.40234375 19.29765625 7.40234375 26.09765625 C5.75234375 26.42765625 4.10234375 26.75765625 2.40234375 27.09765625 C1.40234375 26.09765625 1.40234375 26.09765625 1.28881836 24.14819336 C1.29667358 22.89921265 1.29667358 22.89921265 1.3046875 21.625 C1.30791016 20.72587891 1.31113281 19.82675781 1.31445312 18.90039062 C1.32283203 17.95486328 1.33121094 17.00933594 1.33984375 16.03515625 C1.34435547 15.08576172 1.34886719 14.13636719 1.35351562 13.15820312 C1.36534265 10.8046256 1.3818235 8.45117148 1.40234375 6.09765625 C-0.24765625 6.09765625 -1.89765625 6.09765625 -3.59765625 6.09765625 C-3.97984392 4.44150968 -4.31160727 2.77308601 -4.59765625 1.09765625 C-3.59765625 0.09765625 -3.59765625 0.09765625 0 0 Z " fill="#2B6BAE" transform="translate(879.59765625,15.90234375)"/>
<path d="M0 0 C0 0.66 0 1.32 0 2 C-5.22913428 3.07483628 -10.24506799 3.12930634 -15.5546875 3.09765625 C-16.45623566 3.0962413 -17.35778381 3.09482635 -18.28665161 3.09336853 C-21.149469 3.0877974 -24.01220648 3.07525026 -26.875 3.0625 C-28.82291553 3.05748127 -30.7708323 3.05291901 -32.71875 3.04882812 C-37.47922178 3.03869083 -42.23952206 3.01910986 -47 3 C-47 8.94 -47 14.88 -47 21 C-28.52 21 -10.04 21 9 21 C9 21.33 9 21.66 9 22 C2.70514223 23.12644823 -3.45677634 23.12817673 -9.83984375 23.09765625 C-10.96193741 23.0962413 -12.08403107 23.09482635 -13.24012756 23.09336853 C-16.80594608 23.087794 -20.37170062 23.07524616 -23.9375 23.0625 C-26.3626293 23.05748171 -28.78775959 23.05291938 -31.21289062 23.04882812 C-37.14195154 23.03783291 -43.07096494 23.02058583 -49 23 C-49 16.07 -49 9.14 -49 2 C-46.26589844 1.93941406 -43.53179688 1.87882813 -40.71484375 1.81640625 C-38.05051226 1.75449928 -35.38621837 1.69116046 -32.72192383 1.62768555 C-30.87820825 1.58452272 -29.03445748 1.54283549 -27.19067383 1.50268555 C-24.5319562 1.44452834 -21.87341265 1.38096781 -19.21484375 1.31640625 C-17.98942116 1.29133751 -17.98942116 1.29133751 -16.73924255 1.26576233 C-11.12071382 1.12214374 -5.58881523 0 0 0 Z " fill="#326598" transform="translate(854,180)"/>
<path d="M0 0 C15.51 0 31.02 0 47 0 C47 0.33 47 0.66 47 1 C32.15 1 17.3 1 2 1 C5.39352089 8.6876199 5.39352089 8.6876199 8.78979492 16.37402344 C11.60349773 22.75850255 14.323879 29.16726606 16.9152832 35.64550781 C17.89173967 38.1226419 17.89173967 38.1226419 20 40 C21.32956119 43.54110852 22.49868526 47.12297382 23.68359375 50.71484375 C24.88982652 53.72505668 25.66985146 54.92211825 28 57 C28.37938617 58.99177741 28.70285977 60.99430341 29 63 C29.91588717 66.02985376 30.94558987 69.01582038 32 72 C32.66 72 33.32 72 34 72 C34.66 74.31 35.32 76.62 36 79 C35.01 79.495 35.01 79.495 34 80 C25.27575364 60.1831059 16.55938044 40.36243059 7.93505859 20.50180054 C7.22864373 18.8762695 6.52096206 17.2512884 5.81201172 15.62686157 C4.82686535 13.36864365 3.84638061 11.10846067 2.8671875 8.84765625 C2.57431854 8.17873352 2.28144958 7.50981079 1.97970581 6.82061768 C0 2.22868311 0 2.22868311 0 0 Z " fill="#366599" transform="translate(514,68)"/>
<path d="M0 0 C2 3 2 3 6 17 C-8.85 17 -23.7 17 -39 17 C-39.33 15.68 -39.66 14.36 -40 13 C-39.49025635 13.16226074 -38.9805127 13.32452148 -38.45532227 13.49169922 C-35.17800974 14.17016841 -32.06164617 14.12990999 -28.71484375 14.1328125 C-27.66859581 14.13424759 -27.66859581 14.13424759 -26.60121155 14.13571167 C-25.13119415 14.13639036 -23.6611737 14.13455778 -22.19116211 14.13037109 C-19.94182618 14.12501031 -17.69268919 14.1303307 -15.44335938 14.13671875 C-14.01302039 14.13605807 -12.58268154 14.13477712 -11.15234375 14.1328125 C-9.85288818 14.13168457 -8.55343262 14.13055664 -7.21459961 14.12939453 C-3.9820646 14.1483639 -3.9820646 14.1483639 -1 13 C-0.83052421 11.58366664 -0.66454493 10.16691467 -0.5 8.75 C-0.36078125 7.56664062 -0.36078125 7.56664062 -0.21875 6.359375 C0.06154619 3.73109603 0.06154619 3.73109603 0 0 Z " fill="#32659B" transform="translate(755,186)"/>
<path d="M0 0 C0.5625 1.9375 0.5625 1.9375 1 4 C0.67 4.33 0.34 4.66 0 5 C-1.65 5 -3.3 5 -5 5 C-5 11.6 -5 18.2 -5 25 C-6.65 25.33 -8.3 25.66 -10 26 C-11 25 -11 25 -11.09765625 21.40234375 C-11.0909822 19.91403133 -11.07902183 18.42573568 -11.0625 16.9375 C-11.05798828 16.17888672 -11.05347656 15.42027344 -11.04882812 14.63867188 C-11.0370068 12.75908129 -11.01907078 10.87953101 -11 9 C-10.34 9 -9.68 9 -9 9 C-7.96594335 13.2654837 -8 16.37316973 -8 21 C-7.67 15.39 -7.34 9.78 -7 4 C-5.02 3.67 -3.04 3.34 -1 3 C-0.67 2.01 -0.34 1.02 0 0 Z " fill="#366698" transform="translate(892,17)"/>
<path d="M0 0 C1.65 0.33 3.3 0.66 5 1 C5 1.99 5 2.98 5 4 C3.68 3.34 2.36 2.68 1 2 C1.020625 2.94875 1.04125 3.8975 1.0625 4.875 C1 8 1 8 0 10 C-0.66 10 -1.32 10 -2 10 C-2 12.97 -2 15.94 -2 19 C-1.01 18.01 -0.02 17.02 1 16 C1.33 16.33 1.66 16.66 2 17 C1.91036938 18.69141656 1.75422324 20.37959602 1.5625 22.0625 C1.46066406 22.98160156 1.35882812 23.90070312 1.25390625 24.84765625 C1.12822266 25.91306641 1.12822266 25.91306641 1 27 C-0.65 27 -2.3 27 -4 27 C-5.53727522 21.9858003 -4.53297029 17.42486778 -3.6875 12.375 C-3.55666016 11.51648437 -3.42582031 10.65796875 -3.29101562 9.7734375 C-2.25827585 3.38741378 -2.25827585 3.38741378 0 0 Z " fill="#2B639C" transform="translate(897,16)"/>
<path d="M0 0 C0.9583374 0.00523682 1.9166748 0.01047363 2.90405273 0.01586914 C4.45576172 0.02070312 4.45576172 0.02070312 6.03881836 0.02563477 C7.12743164 0.03401367 8.21604492 0.04239258 9.33764648 0.05102539 C10.97636719 0.05779297 10.97636719 0.05779297 12.64819336 0.06469727 C15.35723144 0.07652713 18.06616248 0.09300996 20.77514648 0.11352539 C20.11514648 2.09352539 19.45514648 4.07352539 18.77514648 6.11352539 C18.44514648 6.11352539 18.11514648 6.11352539 17.77514648 6.11352539 C17.77514648 4.46352539 17.77514648 2.81352539 17.77514648 1.11352539 C11.50514648 1.44352539 5.23514648 1.77352539 -1.22485352 2.11352539 C-2.21485352 5.41352539 -3.20485352 8.71352539 -4.22485352 12.11352539 C-4.88485352 12.11352539 -5.54485352 12.11352539 -6.22485352 12.11352539 C-6.22485352 14.09352539 -6.22485352 16.07352539 -6.22485352 18.11352539 C-6.88485352 18.11352539 -7.54485352 18.11352539 -8.22485352 18.11352539 C-8.16297852 19.19633789 -8.16297852 19.19633789 -8.09985352 20.30102539 C-8.23406657 23.32081908 -8.97655971 25.38288268 -10.22485352 28.11352539 C-10.88485352 28.11352539 -11.54485352 28.11352539 -12.22485352 28.11352539 C-12.22485352 29.43352539 -12.22485352 30.75352539 -12.22485352 32.11352539 C-12.88485352 32.11352539 -13.54485352 32.11352539 -14.22485352 32.11352539 C-13.55865108 28.1905344 -12.40496873 24.68282743 -10.97485352 20.97290039 C-10.53141602 19.82047852 -10.08797852 18.66805664 -9.63110352 17.48071289 C-9.16704102 16.28704102 -8.70297852 15.09336914 -8.22485352 13.86352539 C-7.76079102 12.65438477 -7.29672852 11.44524414 -6.81860352 10.19946289 C-2.93420888 0.14972096 -2.93420888 0.14972096 0 0 Z " fill="#356699" transform="translate(613.224853515625,67.886474609375)"/>
<path d="M0 0 C0.66 0.33 1.32 0.66 2 1 C1.64775091 8.85879863 0.86501253 15.65062002 -2 23 C-3.32 23 -4.64 23 -6 23 C-5.68828736 20.6621552 -5.35199678 18.33197866 -5 16 C-4.8659375 15.07316406 -4.731875 14.14632813 -4.59375 13.19140625 C-4.36171875 11.73541016 -4.36171875 11.73541016 -4.125 10.25 C-3.98320313 9.32703125 -3.84140625 8.4040625 -3.6953125 7.453125 C-2.93168498 4.75897849 -2.03059992 3.84196496 0 2 C0 1.34 0 0.68 0 0 Z " fill="#2D68A4" transform="translate(805,244)"/>
<path d="M0 0 C0.33 1.65 0.66 3.3 1 5 C-1.92824652 5.97608217 -3.95613276 6.08226668 -7 6 C-7.33 7.65 -7.66 9.3 -8 11 C-8.66 10.34 -9.32 9.68 -10 9 C-10.99 8.67 -11.98 8.34 -13 8 C-12.68762196 5.11050316 -12.35661121 3.41366901 -10.4375 1.1875 C-6.8580787 -0.55632063 -3.95820158 -0.19791008 0 0 Z " fill="#326297" transform="translate(821,215)"/>
<path d="M0 0 C0.66 0.33 1.32 0.66 2 1 C3 4 3 4 2 7 C1.01 7 0.02 7 -1 7 C-0.91818026 10.33426756 -0.80542926 13.66682969 -0.6875 17 C-0.66494141 17.93457031 -0.64238281 18.86914062 -0.61914062 19.83203125 C-0.44415615 24.38162754 -0.1030697 28.25247812 1.60546875 32.5 C3 36 3 36 2 39 C1.35004703 37.58521865 0.70521278 36.16808513 0.0625 34.75 C-0.29714844 33.96109375 -0.65679688 33.1721875 -1.02734375 32.359375 C-4.85763925 23.06821644 -3.72803785 11.46789605 -1 2 C-0.67 1.34 -0.34 0.68 0 0 Z " fill="#376598" transform="translate(802,93)"/>
<path d="M0 0 C0.66 0 1.32 0 2 0 C1.67 2.64 1.34 5.28 1 8 C1.99 8 2.98 8 4 8 C3.02601734 11.50633757 2.10913045 12.91071145 -0.75 15.25 C-5.55947824 17.83971905 -8.45358202 18.32956449 -13.8125 17.1875 C-17 16 -17 16 -18 14 C-17.4328125 14.16242188 -16.865625 14.32484375 -16.28125 14.4921875 C-13.94456082 15.01234091 -11.89019234 15.13318559 -9.5 15.125 C-8.7471875 15.12757813 -7.994375 15.13015625 -7.21875 15.1328125 C-5.026465 15.00158417 -3.10680863 14.60331338 -1 14 C-1 13.01 -1 12.02 -1 11 C-1.495 11.33 -1.99 11.66 -2.5 12 C-6.09090894 13.43636358 -9.14456127 13.12851462 -13 13 C-12.67 12.34 -12.34 11.68 -12 11 C-11.0925 11.0825 -10.185 11.165 -9.25 11.25 C-5.99101356 11.27486103 -5.99101356 11.27486103 -3.75 9.4375 C-1.58829182 6.42654932 -0.82828954 3.58925469 0 0 Z " fill="#2E669C" transform="translate(837,243)"/>
<path d="M0 0 C0.5625 1.9375 0.5625 1.9375 1 4 C0 5 0 5 -3.5625 5.0625 C-4.696875 5.041875 -5.83125 5.02125 -7 5 C-7.66 7.64 -8.32 10.28 -9 13 C-9.33 13 -9.66 13 -10 13 C-9.67 10.03 -9.34 7.06 -9 4 C-10.98 4.99 -10.98 4.99 -13 6 C-12.14382686 3.28878505 -11.54750525 1.44611539 -9.3125 -0.375 C-6.02940656 -1.26232255 -3.30046211 -0.63470425 0 0 Z " fill="#346397" transform="translate(805,216)"/>
<path d="M0 0 C2 1 2 1 4 3 C4.1953125 5.3828125 4.1953125 5.3828125 4.125 8.125 C4.10695313 9.03507813 4.08890625 9.94515625 4.0703125 10.8828125 C4.04710937 11.58148438 4.02390625 12.28015625 4 13 C8.455 13.99 8.455 13.99 13 15 C13 15.66 13 16.32 13 17 C11.54207116 17.05399736 10.08357288 17.09279177 8.625 17.125 C7.40683594 17.15980469 7.40683594 17.15980469 6.1640625 17.1953125 C4 17 4 17 2 15 C2 14.01 2 13.02 2 12 C1.01 11.67 0.02 11.34 -1 11 C-0.67 7.37 -0.34 3.74 0 0 Z " fill="#2869AE" transform="translate(645,242)"/>
<path d="M0 0 C0.625 1.875 0.625 1.875 1 4 C-1 6 -1 6 -3.625 6.125 C-4.40875 6.08375 -5.1925 6.0425 -6 6 C-6 6.66 -6 7.32 -6 8 C-4.906875 7.835 -3.81375 7.67 -2.6875 7.5 C1 7 1 7 4 7 C0.55345599 10.17082049 -2.35264972 10.8424627 -7 11 C-9.52720688 10.22807105 -11.62984037 9.20926512 -14 8 C-13.67 6.35 -13.34 4.7 -13 3 C-12.484375 3.165 -11.96875 3.33 -11.4375 3.5 C-8.26636124 4.15049 -5.22781666 4.0620734 -2 4 C-1.34 2.68 -0.68 1.36 0 0 Z " fill="#31639A" transform="translate(715,250)"/>
<path d="M0 0 C0.33 1.32 0.66 2.64 1 4 C0.236875 4.12375 -0.52625 4.2475 -1.3125 4.375 C-5.19461823 6.7223273 -5.42971619 9.63193166 -6.51953125 13.8828125 C-6.67808594 14.58148438 -6.83664062 15.28015625 -7 16 C-8.65 16 -10.3 16 -12 16 C-11.25 8.375 -11.25 8.375 -9 5 C-8.67 5.33 -8.34 5.66 -8 6 C-7.34 5.01 -6.68 4.02 -6 3 C-2.875 2.8125 -2.875 2.8125 0 3 C0 2.01 0 1.02 0 0 Z " fill="#2B6095" transform="translate(602,244)"/>
<path d="M0 0 C1.2065625 0.0309375 1.2065625 0.0309375 2.4375 0.0625 C2.4375 2.0425 2.4375 4.0225 2.4375 6.0625 C1.7775 5.0725 1.1175 4.0825 0.4375 3.0625 C-0.5525 2.7325 -1.5425 2.4025 -2.5625 2.0625 C-2.7986959 8.46603322 -2.385821 13.90879161 -0.5625 20.0625 C-2.5425 20.7225 -4.5225 21.3825 -6.5625 22.0625 C-4.75345584 0.11593795 -4.75345584 0.11593795 0 0 Z " fill="#2A66A6" transform="translate(617.5625,217.9375)"/>
<path d="M0 0 C0.99 0.33 1.98 0.66 3 1 C-3.27228932 5.16406681 -8.54218888 7.79712724 -16 9 C-14.71332197 6.12971824 -13.52679052 3.92129233 -11 2 C-8.5546875 1.5234375 -8.5546875 1.5234375 -5.875 1.375 C-2.63088186 1.43466212 -2.63088186 1.43466212 0 0 Z " fill="#3069A6" transform="translate(880,192)"/>
<path d="M0 0 C1.0730756 3.2192268 0.79946725 3.90206442 0 7 C0.33 7.66 0.66 8.32 1 9 C0.34 9 -0.32 9 -1 9 C-1 9.99 -1 10.98 -1 12 C-1.66 12 -2.32 12 -3 12 C-3.1340625 12.56847656 -3.268125 13.13695313 -3.40625 13.72265625 C-4.00208122 16.00798257 -4.72668924 18.20649845 -5.5 20.4375 C-6.57210051 23.60673369 -7.46583034 26.68814809 -8 30 C-8.99 30.33 -9.98 30.66 -11 31 C-9.62869665 23.71400915 -7.26161559 17.252619 -4.375 10.4375 C-3.95476563 9.42880859 -3.53453125 8.42011719 -3.1015625 7.38085938 C-2.07428499 4.91772808 -1.04034585 2.45763324 0 0 Z " fill="#33669B" transform="translate(598,100)"/>
<path d="M0 0 C0.99 0.33 1.98 0.66 3 1 C3.33 2.65 3.66 4.3 4 6 C4.66 6 5.32 6 6 6 C6 7.32 6 8.64 6 10 C5.01 10.495 5.01 10.495 4 11 C3.26924352 13.3140622 2.59861742 15.64828869 2 18 C1.01 18 0.02 18 -1 18 C-1 17.01 -1 16.02 -1 15 C-0.34 15 0.32 15 1 15 C0.67 10.05 0.34 5.1 0 0 Z " fill="#2868AF" transform="translate(868,232)"/>
<path d="M0 0 C1.485 0.99 1.485 0.99 3 2 C3 3.32 3 4.64 3 6 C4.32 5.67 5.64 5.34 7 5 C8 11.625 8 11.625 8 15 C8.66 15.33 9.32 15.66 10 16 C7.25 21.875 7.25 21.875 5 23 C5.33837891 21.49373047 5.33837891 21.49373047 5.68359375 19.95703125 C6.04341794 15.45700775 4.99443996 12.6232464 3.0625 8.6875 C0 2.16186253 0 2.16186253 0 0 Z " fill="#3168A0" transform="translate(556,164)"/>
<path d="M0 0 C0.66 0.99 1.32 1.98 2 3 C1.67 3.33 1.34 3.66 1 4 C0.87802192 5.38050858 0.82231101 6.76697647 0.79467773 8.15258789 C0.77473251 9.03342545 0.75478729 9.914263 0.73423767 10.8217926 C0.71752518 11.77907761 0.70081268 12.73636261 0.68359375 13.72265625 C0.66281265 14.69786728 0.64203156 15.67307831 0.62062073 16.67784119 C0.55501588 19.8059863 0.49618972 22.93421822 0.4375 26.0625 C0.39432517 28.1777435 0.35071123 30.29297809 0.30664062 32.40820312 C0.19932345 37.60537587 0.0975778 42.80263577 0 48 C-0.33 48 -0.66 48 -1 48 C-1.33 32.82 -1.66 17.64 -2 2 C-1.34 2 -0.68 2 0 2 C0 1.34 0 0.68 0 0 Z " fill="#31649C" transform="translate(227,108)"/>
<path d="M0 0 C1.0326802 2.78823655 1.04509293 3.8677274 0.0625 6.75 C-0.288125 7.4925 -0.63875 8.235 -1 9 C0.32 9.33 1.64 9.66 3 10 C-4.625 12.125 -4.625 12.125 -8 11 C-6.46457536 6.52167812 -4.39145948 2.19572974 0 0 Z " fill="#2B6BAC" transform="translate(763,72)"/>
<path d="M0 0 C5.65999023 -0.02467467 11.31994932 -0.04284788 16.97998047 -0.05493164 C18.90641831 -0.05996787 20.83285231 -0.06679712 22.75927734 -0.07543945 C25.52442368 -0.08753608 28.28951958 -0.09323533 31.0546875 -0.09765625 C32.3516304 -0.10539818 32.3516304 -0.10539818 33.67477417 -0.11329651 C39.77225659 -0.11387171 39.77225659 -0.11387171 42 1 C42 1.99 42 2.98 42 4 C41.35200439 3.67402832 40.70400879 3.34805664 40.03637695 3.01220703 C36.13521091 1.71171379 32.47933407 1.75118083 28.41796875 1.8046875 C27.19670036 1.80893234 27.19670036 1.80893234 25.95075989 1.81326294 C23.362854 1.82441416 20.77530042 1.84950917 18.1875 1.875 C16.42773939 1.88503635 14.66797333 1.89416106 12.90820312 1.90234375 C8.60533402 1.9243369 4.30272664 1.95883164 0 2 C0 1.34 0 0.68 0 0 Z " fill="#31679F" transform="translate(301,68)"/>
<path d="M0 0 C0.5775 0.226875 1.155 0.45375 1.75 0.6875 C-0.23 1.3475 -2.21 2.0075 -4.25 2.6875 C-3.92 3.6775 -3.59 4.6675 -3.25 5.6875 C-2.92 5.0275 -2.59 4.3675 -2.25 3.6875 C0.39 3.6875 3.03 3.6875 5.75 3.6875 C6.08 4.3475 6.41 5.0075 6.75 5.6875 C5.3578125 5.5946875 5.3578125 5.5946875 3.9375 5.5 C0.85151111 5.42008696 0.85151111 5.42008696 -1 6.8125 C-2.65483154 9.29474732 -3.42581408 11.83454874 -4.25 14.6875 C-4.91 14.3575 -5.57 14.0275 -6.25 13.6875 C-5.92 11.7075 -5.59 9.7275 -5.25 7.6875 C-6.24 7.6875 -7.23 7.6875 -8.25 7.6875 C-6.86345583 3.41232214 -5.12511737 -0.71182186 0 0 Z " fill="#306296" transform="translate(888.25,229.3125)"/>
<path d="M0 0 C0.33 0 0.66 0 1 0 C0.37443278 6.38078569 0.37443278 6.38078569 -1.41015625 9.33203125 C-3.19477883 12.32686472 -4.13436853 15.16149393 -5.125 18.5 C-5.45757813 19.6034375 -5.79015625 20.706875 -6.1328125 21.84375 C-6.87776396 24.55510487 -7.49456428 27.23557609 -8 30 C-8.66 30 -9.32 30 -10 30 C-8.56564369 19.71220299 -4.88968265 9.16815497 0 0 Z " fill="#356499" transform="translate(677,76)"/>
<path d="M0 0 C0.99 0.33 1.98 0.66 3 1 C3.1746988 7.28915663 3.1746988 7.28915663 2 10 C-0.25 11.8125 -0.25 11.8125 -3 13 C-5.8125 12.6875 -5.8125 12.6875 -8 12 C-8 11.34 -8 10.68 -8 10 C-7.05125 9.835 -6.1025 9.67 -5.125 9.5 C-1.91873588 8.37777898 -1.91873588 8.37777898 -1.15625 6.0859375 C-0.67381375 4.07815136 -0.32880438 2.03858716 0 0 Z " fill="#2969AD" transform="translate(717,246)"/>
<path d="M0 0 C1.65 0 3.3 0 5 0 C5 2.97 5 5.94 5 9 C4.01 9 3.02 9 2 9 C2 9.66 2 10.32 2 11 C1.34 11 0.68 11 0 11 C0 7.37 0 3.74 0 0 Z " fill="#2B69A9" transform="translate(754,243)"/>
<path d="M0 0 C0 1.98 0 3.96 0 6 C-0.66 5.34 -1.32 4.68 -2 4 C-3.98 10.93 -5.96 17.86 -8 25 C-8.66 24.34 -9.32 23.68 -10 23 C-10 21.68 -10 20.36 -10 19 C-9.34 19 -8.68 19 -8 19 C-7.74605469 17.79601562 -7.49210938 16.59203125 -7.23046875 15.3515625 C-6.88344818 13.77590153 -6.53575703 12.20038815 -6.1875 10.625 C-6.02185547 9.8309375 -5.85621094 9.036875 -5.68554688 8.21875 C-5.51474609 7.45820312 -5.34394531 6.69765625 -5.16796875 5.9140625 C-5.01610107 5.2123291 -4.8642334 4.5105957 -4.70776367 3.78759766 C-3.85611659 1.63659388 -2.58447381 0 0 0 Z " fill="#36659C" transform="translate(690,102)"/>
<path d="M0 0 C0.33 0.99 0.66 1.98 1 3 C2.98 3 4.96 3 7 3 C7 4.65 7 6.3 7 8 C4.69 8 2.38 8 0 8 C-0.33 8.99 -0.66 9.98 -1 11 C-0.67 7.37 -0.34 3.74 0 0 Z " fill="#2F66A0" transform="translate(811,226)"/>
<path d="M0 0 C3.13816827 1.49776213 5.90125227 3.32500158 8.75 5.3125 C5.20901634 7.08299183 1.46225255 6.33929326 -2.25 5.3125 C-3.625 2.75 -3.625 2.75 -4.25 0.3125 C-2.25 -0.6875 -2.25 -0.6875 0 0 Z " fill="#2D6DAE" transform="translate(237.25,71.6875)"/>
<path d="M0 0 C0.66 0.33 1.32 0.66 2 1 C0.33333333 4.33333333 -1.33333333 7.66666667 -3 11 C-4.32 9.68 -5.64 8.36 -7 7 C-7 9.64 -7 12.28 -7 15 C-7.99 15.495 -7.99 15.495 -9 16 C-8.88557539 14.39504433 -8.75805306 12.79101881 -8.625 11.1875 C-8.55539062 10.29417969 -8.48578125 9.40085938 -8.4140625 8.48046875 C-8 6 -8 6 -6 3 C-5.01 3.99 -4.02 4.98 -3 6 C-2.01 4.02 -1.02 2.04 0 0 Z " fill="#305F94" transform="translate(652,235)"/>
<path d="M0 0 C-0.625 2.375 -0.625 2.375 -2 5 C-5.0625 6.1875 -5.0625 6.1875 -8 7 C-8.33 7.66 -8.66 8.32 -9 9 C-10.9375 8.6875 -10.9375 8.6875 -13 8 C-13.33 7.01 -13.66 6.02 -14 5 C-12.865625 4.87625 -11.73125 4.7525 -10.5625 4.625 C-8.7990625 4.315625 -8.7990625 4.315625 -7 4 C-6.67 3.34 -6.34 2.68 -6 2 C-3.85118612 0.75230162 -2.50320403 0 0 0 Z " fill="#296BAC" transform="translate(868,252)"/>
<path d="M0 0 C2.02907167 3.3146667 2.12742133 5.4315979 1.625 9.25 C1.51414062 10.14203125 1.40328125 11.0340625 1.2890625 11.953125 C1.19367187 12.62859375 1.09828125 13.3040625 1 14 C-0.32 14 -1.64 14 -3 14 C-2.33333333 11.33333333 -1.66666667 8.66666667 -1 6 C-1.66 5.67 -2.32 5.34 -3 5 C-2.34 5 -1.68 5 -1 5 C-0.67 3.35 -0.34 1.7 0 0 Z " fill="#2668B2" transform="translate(840,237)"/>
<path d="M0 0 C0.99 0 1.98 0 3 0 C0.41874331 8.17397951 -2.77011881 16.06640834 -6 24 C-6.33 24 -6.66 24 -7 24 C-7.19622241 19.78121808 -6.80230168 16.82989106 -5 13 C-4.34 13 -3.68 13 -3 13 C-2.814375 12.01 -2.814375 12.01 -2.625 11 C-1.85479462 7.30301417 -0.93049337 3.65994058 0 0 Z " fill="#32679B" transform="translate(576,201)"/>
<path d="M0 0 C1.32 0 2.64 0 4 0 C3.67 1.65 3.34 3.3 3 5 C-3.38700473 7.09029246 -7.58604177 6.93012632 -14 5 C-9.83086244 3.80174431 -5.6744752 3.64728521 -1.36328125 3.37890625 C-0.58339844 3.25386719 0.19648437 3.12882812 1 3 C1.33 2.34 1.66 1.68 2 1 C1.34 0.67 0.68 0.34 0 0 Z " fill="#366098" transform="translate(743,254)"/>
<path d="M0 0 C3.59816882 1.0214834 3.59816882 1.0214834 7 0 C7 0.99 7 1.98 7 3 C6.34 3 5.68 3 5 3 C5 3.66 5 4.32 5 5 C2.3125 5.3125 2.3125 5.3125 -1 5 C-3.875 2.5 -3.875 2.5 -6 0 C-3.44211818 -1.27894091 -2.70140697 -0.77183056 0 0 Z " fill="#2766AE" transform="translate(883,254)"/>
<path d="M0 0 C6.52307692 1.47692308 6.52307692 1.47692308 8.9375 4.125 C9.288125 4.74375 9.63875 5.3625 10 6 C5.31034294 7.11658501 2.46236469 6.80619523 -2 5 C-1.01 4.67 -0.02 4.34 1 4 C0.67 2.68 0.34 1.36 0 0 Z " fill="#2660AD" transform="translate(833,228)"/>
<path d="M0 0 C0.721875 0.309375 1.44375 0.61875 2.1875 0.9375 C4.80307309 1.92560539 7.25118982 2.5287754 10 3 C4.40185694 6.73209538 -1.45532538 7.27269478 -8 7 C-5.23776722 4.23776722 -2.79293383 4.42143709 1 4 C0.67 2.68 0.34 1.36 0 0 Z " fill="#31679F" transform="translate(223,200)"/>
<path d="M0 0 C0.92683594 0.00451172 1.85367188 0.00902344 2.80859375 0.01367188 C5.08079709 0.02538426 7.35286388 0.04178628 9.625 0.0625 C9.625 0.3925 9.625 0.7225 9.625 1.0625 C8.42101562 1.11148438 7.21703125 1.16046875 5.9765625 1.2109375 C4.40101802 1.28596343 2.82549834 1.36151133 1.25 1.4375 C0.4559375 1.4684375 -0.338125 1.499375 -1.15625 1.53125 C-5.74167375 1.58066421 -5.74167375 1.58066421 -9.375 4.0625 C-10.365 4.3925 -11.355 4.7225 -12.375 5.0625 C-13.035 4.7325 -13.695 4.4025 -14.375 4.0625 C-14.375 3.4025 -14.375 2.7425 -14.375 2.0625 C-15.035 1.7325 -15.695 1.4025 -16.375 1.0625 C-10.89230931 -0.09414737 -5.57160726 -0.05166255 0 0 Z " fill="#32669F" transform="translate(206.375,63.9375)"/>
<path d="M0 0 C0.66 0.99 1.32 1.98 2 3 C1.67 3.99 1.34 4.98 1 6 C1.32550502 7.66821323 1.65846063 9.33499557 2 11 C1.67 11.66 1.34 12.32 1 13 C2.32 13 3.64 13 5 13 C5 13.66 5 14.32 5 15 C3.35 15 1.7 15 0 15 C-0.144375 13.783125 -0.28875 12.56625 -0.4375 11.3125 C-0.73451213 8.84467865 -1.107842 6.54902437 -1.6875 4.125 C-1.790625 3.42375 -1.89375 2.7225 -2 2 C-1.34 1.34 -0.68 0.68 0 0 Z " fill="#2769B2" transform="translate(729,243)"/>
<path d="M0 0 C0.66 0.33 1.32 0.66 2 1 C1.34 2.32 0.68 3.64 0 5 C1.32 4.67 2.64 4.34 4 4 C2.02 6.97 2.02 6.97 0 10 C-1.32 9.01 -2.64 8.02 -4 7 C-4 7.99 -4 8.98 -4 10 C-4.66 10 -5.32 10 -6 10 C-4.79157144 5.56909529 -3.48331435 3.01887244 0 0 Z " fill="#32659A" transform="translate(734,230)"/>
<path d="M0 0 C0.33 0 0.66 0 1 0 C1.41954513 5.97851812 0.66277869 11.15697605 -0.875 16.9375 C-1.04870117 17.60015869 -1.22240234 18.26281738 -1.40136719 18.94555664 C-2.2350885 21.93485593 -2.77072536 23.77072536 -5 26 C-4.6889315 23.93728361 -4.37608484 21.87483534 -4.0625 19.8125 C-3.88847656 18.66394531 -3.71445312 17.51539063 -3.53515625 16.33203125 C-3.08620687 13.53674788 -2.57917838 10.77066414 -2 8 C-1.34 8 -0.68 8 0 8 C0 5.36 0 2.72 0 0 Z " fill="#326599" transform="translate(271,146)"/>
<path d="M0 0 C0 3 0 3 -2 5.5625 C-5.57910329 8.47052143 -8.41205498 9.67910403 -13 10 C-15.63685549 9.66090342 -17.49735097 9.0214894 -20 8 C-20.33 7.34 -20.66 6.68 -21 6 C-20.4328125 6.16113281 -19.865625 6.32226562 -19.28125 6.48828125 C-16.95465821 7.01017085 -14.881395 7.16711134 -12.5 7.1875 C-11.37078125 7.20876953 -11.37078125 7.20876953 -10.21875 7.23046875 C-7.71143284 6.97002559 -6.12066547 6.3508025 -4 5 C-3.63837971 3.67405895 -3.30271961 2.34061543 -3 1 C-2.01 0.67 -1.02 0.34 0 0 Z " fill="#3B6697" transform="translate(840,251)"/>
<path d="M0 0 C0.66 0 1.32 0 2 0 C4.33333333 4.66666667 6.66666667 9.33333333 9 14 C8.01 14.33 7.02 14.66 6 15 C5.67 15.99 5.34 16.98 5 18 C4.34 17.34 3.68 16.68 3 16 C3 15.01 3 14.02 3 13 C3.66 13 4.32 13 5 13 C4.01 10.03 3.02 7.06 2 4 C1.34 4 0.68 4 0 4 C0 2.68 0 1.36 0 0 Z " fill="#33669F" transform="translate(189,172)"/>
<path d="M0 0 C0.66 0 1.32 0 2 0 C2 0.99 2 1.98 2 3 C-1.08888522 5.05925681 -1.70935927 5.2390374 -5.1875 5.125 C-7.0746875 5.063125 -7.0746875 5.063125 -9 5 C-9.66 3.68 -10.32 2.36 -11 1 C-10.28972656 1.01160156 -9.57945312 1.02320313 -8.84765625 1.03515625 C-7.92855469 1.04417969 -7.00945313 1.05320313 -6.0625 1.0625 C-4.68771484 1.07990234 -4.68771484 1.07990234 -3.28515625 1.09765625 C-1.03406673 1.25949049 -1.03406673 1.25949049 0 0 Z " fill="#296AAE" transform="translate(770,254)"/>
<path d="M0 0 C0.66 0 1.32 0 2 0 C1.67 2.97 1.34 5.94 1 9 C-0.32 8.67 -1.64 8.34 -3 8 C-3 7.01 -3 6.02 -3 5 C-3.66 5 -4.32 5 -5 5 C-5 4.34 -5 3.68 -5 3 C-4.01 3 -3.02 3 -2 3 C-1.34 2.01 -0.68 1.02 0 0 Z " fill="#286AB1" transform="translate(635,234)"/>
<path d="M0 0 C1.65 0 3.3 0 5 0 C4.25 7.625 4.25 7.625 2 11 C2 9.02 2 7.04 2 5 C1.01 5.33 0.02 5.66 -1 6 C-0.67 4.02 -0.34 2.04 0 0 Z " fill="#34659B" transform="translate(589,218)"/>
<path d="M0 0 C3.53548434 3.13495016 5.35051934 6.28314268 7.3125 10.5625 C7.84488281 11.69816406 8.37726562 12.83382812 8.92578125 14.00390625 C10 17 10 17 9 20 C4 12.04545455 4 12.04545455 4 7 C3.34 7 2.68 7 2 7 C1.34 4.69 0.68 2.38 0 0 Z " fill="#326497" transform="translate(715,69)"/>
<path d="M0 0 C0.66 0.33 1.32 0.66 2 1 C1.64090865 6.57210713 1.14997252 11.21670839 -2 16 C-4.1875 17.375 -4.1875 17.375 -6 18 C-6 17.01 -6 16.02 -6 15 C-5.01 14.67 -4.02 14.34 -3 14 C-2.67 12.35 -2.34 10.7 -2 9 C-1.34 9 -0.68 9 0 9 C-0.185625 7.88625 -0.37125 6.7725 -0.5625 5.625 C-1 2 -1 2 0 0 Z " fill="#36669B" transform="translate(789,253)"/>
<path d="M0 0 C0.66 0.33 1.32 0.66 2 1 C2.287803 4.05071175 2.4472872 6.96060262 2 10 C-0.4223468 12.10361696 -1.78245634 13 -5 13 C-5 12.01 -5 11.02 -5 10 C-4.01 9.67 -3.02 9.34 -2 9 C-1.26676204 6.98491642 -1.26676204 6.98491642 -1 5 C-0.34 5 0.32 5 1 5 C0.67 3.35 0.34 1.7 0 0 Z " fill="#2569AD" transform="translate(747,231)"/>
<path d="M0 0 C0 0.66 0 1.32 0 2 C-0.99 2.66 -1.98 3.32 -3 4 C-4.20450304 6.55183404 -4.20450304 6.55183404 -5 9 C-5.99 8.67 -6.98 8.34 -8 8 C-7.63487253 5.2980567 -7.30130763 3.41609148 -5.6875 1.1875 C-4 0 -4 0 0 0 Z " fill="#2669AB" transform="translate(830,231)"/>
<path d="M0 0 C2.54452069 3.03055273 3.7239002 5.68877218 4.75 9.5 C5.01296875 10.4384375 5.2759375 11.376875 5.546875 12.34375 C5.99880083 14.99297037 5.875264 16.49248692 5 19 C3.97435379 15.92306138 2.95389229 12.85014995 2 9.75 C1.1837538 6.90183016 1.1837538 6.90183016 -1 5 C-0.625 2.375 -0.625 2.375 0 0 Z " fill="#2F669F" transform="translate(265,104)"/>
<path d="M0 0 C-0.97582031 0.31453125 -1.95164063 0.6290625 -2.95703125 0.953125 C-4.24242286 1.38471634 -5.52756639 1.817047 -6.8125 2.25 C-7.77639648 2.55744141 -7.77639648 2.55744141 -8.75976562 2.87109375 C-12.66903276 4.20794158 -14.91777392 5.37739106 -17 9 C-18.32 8.34 -19.64 7.68 -21 7 C-5.83583501 -1.88086515 -5.83583501 -1.88086515 0 0 Z " fill="#32669B" transform="translate(189,67)"/>
<path d="M0 0 C1.65 0.33 3.3 0.66 5 1 C5 1.99 5 2.98 5 4 C3.68 3.34 2.36 2.68 1 2 C1.020625 2.94875 1.04125 3.8975 1.0625 4.875 C1 8 1 8 0 10 C-0.66 10 -1.32 10 -2 10 C-2 11.98 -2 13.96 -2 16 C-2.66 15.67 -3.32 15.34 -4 15 C-3.71743908 13.06115111 -3.4236207 11.12394039 -3.125 9.1875 C-2.96257813 8.10855469 -2.80015625 7.02960937 -2.6328125 5.91796875 C-2 3 -2 3 0 0 Z " fill="#2B5D8F" transform="translate(897,16)"/>
<path d="M0 0 C1.485 0.99 1.485 0.99 3 2 C5.09340793 2.29031669 5.09340793 2.29031669 7.37890625 2.23046875 C8.63670898 2.22756836 8.63670898 2.22756836 9.91992188 2.22460938 C10.79197266 2.21236328 11.66402344 2.20011719 12.5625 2.1875 C13.43841797 2.18685547 14.31433594 2.18621094 15.21679688 2.18554688 C19.76155645 2.30550621 19.76155645 2.30550621 24 1 C23.67 1.99 23.34 2.98 23 4 C15.08 4 7.16 4 -1 4 C-0.67 2.68 -0.34 1.36 0 0 Z " fill="#3E6693" transform="translate(532,255)"/>
<path d="M0 0 C0.66 0.33 1.32 0.66 2 1 C2 4.33333333 2 7.66666667 2 11 C0.02 11.99 0.02 11.99 -2 13 C-2.19294408 8.17639811 -1.75747614 4.50353262 0 0 Z " fill="#2867B0" transform="translate(789,243)"/>
<path d="M0 0 C0.99 0.66 1.98 1.32 3 2 C2.67 3.32 2.34 4.64 2 6 C1.01 6 0.02 6 -1 6 C-0.938125 7.1446875 -0.938125 7.1446875 -0.875 8.3125 C-1 11 -1 11 -3 14 C-3.66 14 -4.32 14 -5 14 C-3.45730076 9.27934033 -1.92205381 4.58335908 0 0 Z " fill="#3568A2" transform="translate(538,240)"/>
<path d="M0 0 C1.65 0 3.3 0 5 0 C4.67 3.3 4.34 6.6 4 10 C3.67 10 3.34 10 3 10 C3 7.69 3 5.38 3 3 C2.34 3 1.68 3 1 3 C0.34 4.65 -0.32 6.3 -1 8 C-1.93065133 5.39417629 -2.14917407 4.35801776 -1.0625 1.75 C-0.711875 1.1725 -0.36125 0.595 0 0 Z " fill="#386392" transform="translate(637,218)"/>
<path d="M0 0 C0.66 0 1.32 0 2 0 C5 3.46153846 5 3.46153846 5 6 C5.99 5.67 6.98 5.34 8 5 C9 6 9 6 9.0625 8.5625 C9.041875 9.366875 9.02125 10.17125 9 11 C4.57128343 8.78564172 2.45699405 6.27698964 0 2 C0 1.34 0 0.68 0 0 Z " fill="#366BA2" transform="translate(455,32)"/>
<path d="M0 0 C0.99 0 1.98 0 3 0 C3 0.99 3 1.98 3 3 C2.34 3 1.68 3 1 3 C0.34 4.98 -0.32 6.96 -1 9 C-1.99 9 -2.98 9 -4 9 C-4.33 8.01 -4.66 7.02 -5 6 C-4.34 6 -3.68 6 -3 6 C-2.690625 5.195625 -2.38125 4.39125 -2.0625 3.5625 C-1 1 -1 1 0 0 Z " fill="#2B6BAE" transform="translate(651,232)"/>
<path d="M0 0 C0.61875 0.495 1.2375 0.99 1.875 1.5 C3.83880904 3.19222773 3.83880904 3.19222773 6 3 C6 3.66 6 4.32 6 5 C5.34 5.66 4.68 6.32 4 7 C4.37253906 7.62648437 4.74507812 8.25296875 5.12890625 8.8984375 C5.60199219 9.71570313 6.07507813 10.53296875 6.5625 11.375 C7.27599609 12.59316406 7.27599609 12.59316406 8.00390625 13.8359375 C8.49697266 14.90714844 8.49697266 14.90714844 9 16 C8.67 16.66 8.34 17.32 8 18 C7.03697644 16.44038638 6.07978996 14.87716775 5.125 13.3125 C4.59132812 12.44238281 4.05765625 11.57226562 3.5078125 10.67578125 C1.46170563 7.04473668 0 4.20230146 0 0 Z " fill="#33659A" transform="translate(145,161)"/>
<path d="M0 0 C0.99 0 1.98 0 3 0 C3 2.31 3 4.62 3 7 C1.35 7 -0.3 7 -2 7 C-2.125 4.625 -2.125 4.625 -2 2 C-1.34 1.34 -0.68 0.68 0 0 Z " fill="#2E64A4" transform="translate(592,253)"/>
<path d="M0 0 C0.66 0.33 1.32 0.66 2 1 C1.91266424 2.60517097 1.80447776 4.20921662 1.6875 5.8125 C1.62949219 6.70582031 1.57148437 7.59914062 1.51171875 8.51953125 C0.93686419 11.30604 0.1793144 12.24135754 -2 14 C-2.05422947 12.5629191 -2.09289723 11.12524538 -2.125 9.6875 C-2.14820313 8.88699219 -2.17140625 8.08648437 -2.1953125 7.26171875 C-2 5 -2 5 0 2 C0 1.34 0 0.68 0 0 Z " fill="#2A6BB3" transform="translate(805,244)"/>
<path d="M0 0 C1.65 0 3.3 0 5 0 C5 2.31 5 4.62 5 7 C4.01 6.67 3.02 6.34 2 6 C2 5.01 2 4.02 2 3 C1.34 3 0.68 3 0 3 C0 4.65 0 6.3 0 8 C-0.33 8 -0.66 8 -1 8 C-1.125 2.25 -1.125 2.25 0 0 Z " fill="#346598" transform="translate(695,229)"/>
<path d="M0 0 C1.65 0 3.3 0 5 0 C5.33 1.65 5.66 3.3 6 5 C4.35 5.33 2.7 5.66 1 6 C0.34 5.01 -0.32 4.02 -1 3 C-0.67 2.01 -0.34 1.02 0 0 Z " fill="#2065AE" transform="translate(598,228)"/>
<path d="M0 0 C0 0.99 0 1.98 0 3 C-2.64 3.66 -5.28 4.32 -8 5 C-8.66 4.01 -9.32 3.02 -10 2 C-6.5980513 -0.09350689 -3.94727588 -0.17942163 0 0 Z " fill="#2766A8" transform="translate(820,217)"/>
<path d="M0 0 C2.46301423 2.46301423 2.76766521 4.27360036 3.625 7.625 C3.88539063 8.62789062 4.14578125 9.63078125 4.4140625 10.6640625 C4.60742188 11.43492187 4.80078125 12.20578125 5 13 C3.68 12.34 2.36 11.68 1 11 C0.67 12.32 0.34 13.64 0 15 C-0.33 13.68 -0.66 12.36 -1 11 C-0.34 10.67 0.32 10.34 1 10 C0.67 6.7 0.34 3.4 0 0 Z " fill="#3267A0" transform="translate(745,155)"/>
<path d="M0 0 C15.10307932 -0.56557995 15.10307932 -0.56557995 21 3 C21.33 3.66 21.66 4.32 22 5 C15.375 4.25 15.375 4.25 12 2 C9.54967646 1.83314311 9.54967646 1.83314311 6.9375 2 C4.27734375 2.125 4.27734375 2.125 2 2 C1.34 1.34 0.68 0.68 0 0 Z " fill="#2E6598" transform="translate(692,64)"/>
<path d="M0 0 C-1.10529715 4.50621146 -1.65094547 6.65094547 -5 10 C-4.67 7.03 -4.34 4.06 -4 1 C-4.66 0.67 -5.32 0.34 -6 0 C-3 -1 -3 -1 0 0 Z " fill="#306FB1" transform="translate(884,237)"/>
<path d="M0 0 C3 4 3 4 2.6875 6.75 C2.460625 7.4925 2.23375 8.235 2 9 C1.34 9 0.68 9 0 9 C0 11.31 0 13.62 0 16 C-0.66 16 -1.32 16 -2 16 C-1.34 10.72 -0.68 5.44 0 0 Z " fill="#34649A" transform="translate(225,157)"/>
<path d="M0 0 C1.32 0.66 2.64 1.32 4 2 C3.34 2 2.68 2 2 2 C1.95101562 2.63808594 1.90203125 3.27617187 1.8515625 3.93359375 C1.77679687 4.75988281 1.70203125 5.58617187 1.625 6.4375 C1.52058594 7.67306641 1.52058594 7.67306641 1.4140625 8.93359375 C1.27742187 9.61550781 1.14078125 10.29742187 1 11 C0.01 11.495 0.01 11.495 -1 12 C-2.11658501 7.31034294 -1.80619523 4.46236469 0 0 Z " fill="#296CB0" transform="translate(911,21)"/>
<path d="M0 0 C1.48831242 0.00667405 2.97660807 0.01863442 4.46484375 0.03515625 C5.22345703 0.03966797 5.98207031 0.04417969 6.76367188 0.04882812 C8.64326246 0.06064945 10.52281274 0.07858547 12.40234375 0.09765625 C12.40234375 0.42765625 12.40234375 0.75765625 12.40234375 1.09765625 C7.45234375 1.09765625 2.50234375 1.09765625 -2.59765625 1.09765625 C-2.59765625 2.08765625 -2.59765625 3.07765625 -2.59765625 4.09765625 C-1.27765625 4.75765625 0.04234375 5.41765625 1.40234375 6.09765625 C-0.24765625 6.09765625 -1.89765625 6.09765625 -3.59765625 6.09765625 C-3.97984392 4.44150968 -4.31160727 2.77308601 -4.59765625 1.09765625 C-3.59765625 0.09765625 -3.59765625 0.09765625 0 0 Z " fill="#356190" transform="translate(879.59765625,15.90234375)"/>
<path d="M0 0 C0.99 0.33 1.98 0.66 3 1 C4.18414294 4.55242882 3.69535532 5.69830562 2.5625 9.1875 C2.27503906 10.08855469 1.98757813 10.98960937 1.69140625 11.91796875 C1.46324219 12.60503906 1.23507812 13.29210937 1 14 C0.67 14 0.34 14 0 14 C0 9.33333333 0 4.66666667 0 0 Z " fill="#2B639C" transform="translate(676,130)"/>
<path d="M0 0 C0.33 0 0.66 0 1 0 C1.46450943 6.50313209 0.32575612 10.4174808 -3 16 C-3.99 15.67 -4.98 15.34 -6 15 C-5.65066406 14.33613281 -5.30132813 13.67226562 -4.94140625 12.98828125 C-4.48636719 12.10527344 -4.03132812 11.22226563 -3.5625 10.3125 C-3.11003906 9.44238281 -2.65757812 8.57226562 -2.19140625 7.67578125 C-1.04008072 5.09001736 -0.43679247 2.78643472 0 0 Z " fill="#316092" transform="translate(896,239)"/>
<path d="M0 0 C0.33 0 0.66 0 1 0 C2.26760563 8.45070423 2.26760563 8.45070423 1 12 C0.814375 12.7425 0.62875 13.485 0.4375 14.25 C0.293125 14.8275 0.14875 15.405 0 16 C-0.66 16 -1.32 16 -2 16 C-1.85764543 14.27054347 -1.71095618 12.54144346 -1.5625 10.8125 C-1.48128906 9.84957031 -1.40007813 8.88664063 -1.31640625 7.89453125 C-1.02333849 5.21350398 -0.57296246 2.6337014 0 0 Z " fill="#2A6297" transform="translate(676,239)"/>
<path d="M0 0 C2.97 0.495 2.97 0.495 6 1 C6 2.65 6 4.3 6 6 C3.69 5.67 1.38 5.34 -1 5 C-0.01 4.67 0.98 4.34 2 4 C1.34 2.68 0.68 1.36 0 0 Z " fill="#315F99" transform="translate(717,229)"/>
<path d="M0 0 C0.66 0 1.32 0 2 0 C2.125 6.75 2.125 6.75 1 9 C0.01 9 -0.98 9 -2 9 C-2.25 3.375 -2.25 3.375 0 0 Z " fill="#286CAF" transform="translate(638,221)"/>
<path d="M0 0 C1.2065625 0.0309375 1.2065625 0.0309375 2.4375 0.0625 C2.4375 2.0425 2.4375 4.0225 2.4375 6.0625 C1.7775 5.0725 1.1175 4.0825 0.4375 3.0625 C-0.5525 2.7325 -1.5425 2.4025 -2.5625 2.0625 C-2.5625 4.7025 -2.5625 7.3425 -2.5625 10.0625 C-3.2225 10.0625 -3.8825 10.0625 -4.5625 10.0625 C-4.42200482 8.58281676 -4.27495174 7.10375484 -4.125 5.625 C-4.04378906 4.80128906 -3.96257813 3.97757813 -3.87890625 3.12890625 C-3.4093501 0.06229881 -3.15462671 0.07694211 0 0 Z " fill="#336598" transform="translate(617.5625,217.9375)"/>
<path d="M0 0 C0.33 0.66 0.66 1.32 1 2 C0.26821134 4.07196631 -0.55899003 6.1108552 -1.4375 8.125 C-1.91058594 9.22070312 -2.38367188 10.31640625 -2.87109375 11.4453125 C-3.24363281 12.28835937 -3.61617187 13.13140625 -4 14 C-4.33 14 -4.66 14 -5 14 C-4.67 10.7 -4.34 7.4 -4 4 C-3.34 4 -2.68 4 -2 4 C-1.34 2.68 -0.68 1.36 0 0 Z " fill="#346499" transform="translate(592,167)"/>
<path d="M0 0 C0.99 0.33 1.98 0.66 3 1 C2.125 6.75 2.125 6.75 1 9 C-3.875 4.25 -3.875 4.25 -5 2 C-4.01 1.67 -3.02 1.34 -2 1 C-1.34 0.67 -0.68 0.34 0 0 Z " fill="#30669F" transform="translate(858,154)"/>
<path d="M0 0 C2.375 0.25 2.375 0.25 5 1 C6.3125 3.0625 6.3125 3.0625 7 5 C6.34 5 5.68 5 5 5 C4.67 5.66 4.34 6.32 4 7 C2 5.75 2 5.75 0 4 C0 2.68 0 1.36 0 0 Z " fill="#2668B0" transform="translate(677,254)"/>
<path d="M0 0 C0.33 0 0.66 0 1 0 C0.98839844 0.62648437 0.97679687 1.25296875 0.96484375 1.8984375 C0.95582031 2.71570313 0.94679688 3.53296875 0.9375 4.375 C0.92589844 5.18710938 0.91429687 5.99921875 0.90234375 6.8359375 C0.85533666 9.04937142 0.85533666 9.04937142 2 11 C2.04022391 13.3329866 2.04320247 15.66706666 2 18 C0 17 0 17 -1 14 C-1.09329934 12.35628509 -1.12995144 10.70885323 -1.125 9.0625 C-1.12757813 8.20785156 -1.13015625 7.35320312 -1.1328125 6.47265625 C-1.00930254 4.17319148 -0.64420687 2.20359652 0 0 Z " fill="#2F6497" transform="translate(727,240)"/>
<path d="M0 0 C0.33 0.66 0.66 1.32 1 2 C0.01 2 -0.98 2 -2 2 C-2 2.66 -2 3.32 -2 4 C-1.34 4.66 -0.68 5.32 0 6 C-2.31 6.33 -4.62 6.66 -7 7 C-6.49396008 4.83125748 -6.00016187 3.00032373 -5 1 C-2.4375 0.375 -2.4375 0.375 0 0 Z " fill="#286BA6" transform="translate(741,228)"/>
<path d="M0 0 C0.33 0 0.66 0 1 0 C1.5326514 6.258654 -0.18150494 10.45108785 -3 16 C-4.49828872 12.11764181 -3.43110582 9.56550712 -2.0625 5.75 C-1.68222656 4.67234375 -1.30195312 3.5946875 -0.91015625 2.484375 C-0.45962891 1.25460938 -0.45962891 1.25460938 0 0 Z " fill="#376798" transform="translate(648,165)"/>
<path d="M0 0 C4.61513112 1.31860889 8.09897612 3.21355437 12 6 C10 7 10 7 6.5625 6.25 C1.83560311 4.59143969 1.83560311 4.59143969 0 2 C0 1.34 0 0.68 0 0 Z " fill="#31649A" transform="translate(875,119)"/>
<path d="M0 0 C1.04449911 3.13349732 0.93423645 3.98968256 0 7 C-1.65 7 -3.3 7 -5 7 C-5 5.35 -5 3.7 -5 2 C-3.68 2 -2.36 2 -1 2 C-0.67 1.34 -0.34 0.68 0 0 Z " fill="#305FA0" transform="translate(583,253)"/>
<path d="M0 0 C1.65 0 3.3 0 5 0 C4.34 2.64 3.68 5.28 3 8 C2.67 8 2.34 8 2 8 C2 6.35 2 4.7 2 3 C1.01 3.33 0.02 3.66 -1 4 C-0.67 2.68 -0.34 1.36 0 0 Z " fill="#295F9B" transform="translate(597,234)"/>
<path d="M0 0 C0.66 0.99 1.32 1.98 2 3 C1.125 6.6875 1.125 6.6875 0 10 C-0.66 9.67 -1.32 9.34 -2 9 C-2.40729228 6.67843403 -2.74438677 4.3431213 -3 2 C-2.01 1.34 -1.02 0.68 0 0 Z " fill="#2D69AF" transform="translate(902,224)"/>
<path d="M0 0 C0.99 0.33 1.98 0.66 3 1 C3 3.33333333 3 5.66666667 3 8 C1.68 8.33 0.36 8.66 -1 9 C-1.09765625 2.84765625 -1.09765625 2.84765625 -1 1 C-0.67 0.67 -0.34 0.34 0 0 Z " fill="#2C6DB0" transform="translate(898,17)"/>
<path d="M0 0 C0.33 0 0.66 0 1 0 C2.34899329 6.25442343 2.34899329 6.25442343 0.625 9.9375 C0.08875 10.618125 -0.4475 11.29875 -1 12 C-1.33 12 -1.66 12 -2 12 C-1.85831863 10.56208484 -1.71148957 9.1246763 -1.5625 7.6875 C-1.48128906 6.88699219 -1.40007813 6.08648437 -1.31640625 5.26171875 C-1 3 -1 3 0 0 Z " fill="#2E66A0" transform="translate(643,181)"/>
<path d="M0 0 C7.74468085 0.74468085 7.74468085 0.74468085 11 4 C11 4.66 11 5.32 11 6 C6.49197399 4.74194623 3.5087188 3.09592835 0 0 Z " fill="#326597" transform="translate(812,139)"/>
<path d="M0 0 C1.98 0.495 1.98 0.495 4 1 C4 1.66 4 2.32 4 3 C4.66 3.33 5.32 3.66 6 4 C5.01 4.495 5.01 4.495 4 5 C3.01 4.67 2.02 4.34 1 4 C1 4.66 1 5.32 1 6 C0.34 6 -0.32 6 -1 6 C-0.67 4.02 -0.34 2.04 0 0 Z " fill="#2F67A6" transform="translate(666,106)"/>
<path d="M0 0 C0.33 0.66 0.66 1.32 1 2 C1.66 2.33 2.32 2.66 3 3 C2.625 4.9375 2.625 4.9375 2 7 C1.01 7.495 1.01 7.495 0 8 C-0.66 6.02 -1.32 4.04 -2 2 C-1.34 1.34 -0.68 0.68 0 0 Z " fill="#266BB4" transform="translate(691,250)"/>
<path d="M0 0 C3.2626876 3.08632611 6.02235218 5.93483504 8 10 C7.67 10.66 7.34 11.32 7 12 C3.76905045 10.38452522 2.55175342 7.1308505 1 4 C0.25 1.5625 0.25 1.5625 0 0 Z " fill="#356397" transform="translate(256,89)"/>
<path d="M0 0 C1.65 0 3.3 0 5 0 C5 1.32 5 2.64 5 4 C3.02 4 1.04 4 -1 4 C-0.67 2.68 -0.34 1.36 0 0 Z " fill="#2E6EB2" transform="translate(793,267)"/>
<path d="M0 0 C0.33 0 0.66 0 1 0 C0.979375 1.11375 0.95875 2.2275 0.9375 3.375 C0.73619282 6.83215921 0.73619282 6.83215921 2 9 C1.01 9.33 0.02 9.66 -1 10 C-1.66 9.67 -2.32 9.34 -3 9 C-2.01 6.03 -1.02 3.06 0 0 Z " fill="#30639D" transform="translate(546,221)"/>
<path d="M0 0 C0.33 0 0.66 0 1 0 C1.28571429 7.42857143 1.28571429 7.42857143 -1 11 C-2.65 11 -4.3 11 -6 11 C-5.195625 10.113125 -4.39125 9.22625 -3.5625 8.3125 C-1.2960841 5.61712968 -0.31582634 3.57936522 0 0 Z " fill="#316499" transform="translate(860,169)"/>
<path d="M0 0 C0.33 0.66 0.66 1.32 1 2 C0.22265625 4.1640625 0.22265625 4.1640625 -0.9375 6.625 C-1.31777344 7.44226563 -1.69804688 8.25953125 -2.08984375 9.1015625 C-2.39019531 9.72804687 -2.69054687 10.35453125 -3 11 C-3.66 11 -4.32 11 -5 11 C-5 9.68 -5 8.36 -5 7 C-4.34 7 -3.68 7 -3 7 C-2.690625 6.030625 -2.38125 5.06125 -2.0625 4.0625 C-1 1 -1 1 0 0 Z " fill="#31679B" transform="translate(604,138)"/>
<path d="M0 0 C1.66666667 0 3.33333333 0 5 0 C4.01 2.97 3.02 5.94 2 9 C1.67 9 1.34 9 1 9 C0.67 6.03 0.34 3.06 0 0 Z " fill="#32689E" transform="translate(604,128)"/>
<path d="M0 0 C0.33 1.32 0.66 2.64 1 4 C3.64 3.67 6.28 3.34 9 3 C6.4013299 5.5986701 4.60157242 5.63249261 1 6 C0.01 5.67 -0.98 5.34 -2 5 C-1.34 3.35 -0.68 1.7 0 0 Z " fill="#376892" transform="translate(757,78)"/>
<path d="M0 0 C0.33 0.66 0.66 1.32 1 2 C2.32 1.67 3.64 1.34 5 1 C2.63707344 3.52588702 1.33537489 4.88820837 -2 6 C-2 2 -2 2 0 0 Z " fill="#2F67A2" transform="translate(769,75)"/>
<path d="M0 0 C3.6969041 0.24646027 5.54337041 0.60345325 8.375 3.0625 C8.91125 3.701875 9.4475 4.34125 10 5 C8.53984709 4.71758359 7.08190207 4.42373386 5.625 4.125 C4.81289063 3.96257812 4.00078125 3.80015625 3.1640625 3.6328125 C1 3 1 3 -1 1 C-0.67 0.67 -0.34 0.34 0 0 Z " fill="#2D66A1" transform="translate(479,0)"/>
<path d="M0 0 C1.67004829 0.31595508 3.33637583 0.65179959 5 1 C6.32 1 7.64 1 9 1 C8.67 1.66 8.34 2.32 8 3 C5.35139573 3.59355614 2.70802678 3.74209269 0 4 C-0.33 3.01 -0.66 2.02 -1 1 C-0.67 0.67 -0.34 0.34 0 0 Z " fill="#296AAF" transform="translate(857,230)"/>
<path d="M0 0 C0.33 0 0.66 0 1 0 C1 1.65 1 3.3 1 5 C2.32 5 3.64 5 5 5 C4.67 6.32 4.34 7.64 4 9 C3.34 8.34 2.68 7.68 2 7 C1.01 7.33 0.02 7.66 -1 8 C-0.67 5.36 -0.34 2.72 0 0 Z " fill="#306298" transform="translate(900,218)"/>
<path d="M0 0 C1.32 0 2.64 0 4 0 C4 0.66 4 1.32 4 2 C3.360625 2.226875 2.72125 2.45375 2.0625 2.6875 C-0.27193661 3.85250896 -0.27193661 3.85250896 -0.75 6.625 C-0.8325 7.40875 -0.915 8.1925 -1 9 C-1.66 9 -2.32 9 -3 9 C-2.69181644 7.68647977 -2.37832335 6.37420428 -2.0625 5.0625 C-1.88847656 4.33160156 -1.71445312 3.60070312 -1.53515625 2.84765625 C-1 1 -1 1 0 0 Z " fill="#336596" transform="translate(602,218)"/>
<path d="M0 0 C0.33 0.66 0.66 1.32 1 2 C1.99 2 2.98 2 4 2 C3.67 3.32 3.34 4.64 3 6 C2.01 5.67 1.02 5.34 0 5 C0 5.66 0 6.32 0 7 C-0.66 7 -1.32 7 -2 7 C-1.34 4.69 -0.68 2.38 0 0 Z " fill="#2F67A1" transform="translate(555,199)"/>
<path d="M0 0 C3.3 0 6.6 0 10 0 C10.33 1.32 10.66 2.64 11 4 C9.53984709 3.71758359 8.08190207 3.42373386 6.625 3.125 C5.81289062 2.96257812 5.00078125 2.80015625 4.1640625 2.6328125 C2 2 2 2 0 0 Z " fill="#2E67A4" transform="translate(178,201)"/>
<path d="M0 0 C-1.28524261 0.86380259 -2.57842419 1.71580369 -3.875 2.5625 C-4.59429688 3.03816406 -5.31359375 3.51382813 -6.0546875 4.00390625 C-6.69664062 4.33261719 -7.33859375 4.66132813 -8 5 C-8.66 4.67 -9.32 4.34 -10 4 C-9.3125 2.0625 -9.3125 2.0625 -8 0 C-4.70572419 -1.09809194 -3.33588828 -1.11196276 0 0 Z " fill="#366599" transform="translate(883,193)"/>
<path d="M0 0 C4.10958767 1.45044271 7.43258745 3.51110752 11 6 C10.01 6.495 10.01 6.495 9 7 C5.78216298 5.56224304 2.93373731 3.95582488 0 2 C0 1.34 0 0.68 0 0 Z " fill="#326597" transform="translate(235,71)"/>
<path d="M0 0 C0.66 0.33 1.32 0.66 2 1 C1.34 3.64 0.68 6.28 0 9 C-1.5 7.75 -1.5 7.75 -3 6 C-3 4.68 -3 3.36 -3 2 C-2.01 2 -1.02 2 0 2 C0 1.34 0 0.68 0 0 Z " fill="#2960A1" transform="translate(902,25)"/>
<path d="M0 0 C1.32 0 2.64 0 4 0 C4.33 0.99 4.66 1.98 5 3 C4.34 3 3.68 3 3 3 C3 3.99 3 4.98 3 6 C2.01 5.67 1.02 5.34 0 5 C0 3.35 0 1.7 0 0 Z " fill="#2664B4" transform="translate(631,253)"/>
<path d="M0 0 C0.66 0 1.32 0 2 0 C2.33 2.31 2.66 4.62 3 7 C2.01 7.33 1.02 7.66 0 8 C0 5.36 0 2.72 0 0 Z " fill="#286AAD" transform="translate(695,232)"/>
<path d="M0 0 C-0.99 2.97 -1.98 5.94 -3 9 C-3.33 7.68 -3.66 6.36 -4 5 C-4.66 4.67 -5.32 4.34 -6 4 C-2.25 0 -2.25 0 0 0 Z " fill="#3066A4" transform="translate(569,225)"/>
<path d="M0 0 C1.98 0 3.96 0 6 0 C6.33 0.99 6.66 1.98 7 3 C4.69 3 2.38 3 0 3 C0 2.01 0 1.02 0 0 Z " fill="#2A64A8" transform="translate(798,217)"/>
<path d="M0 0 C0.33 0 0.66 0 1 0 C1 2.64 1 5.28 1 8 C-0.32 7.34 -1.64 6.68 -3 6 C-1.125 1.125 -1.125 1.125 0 0 Z " fill="#3068A5" transform="translate(342,117)"/>
<path d="M0 0 C0.66 0.66 1.32 1.32 2 2 C0.02 2.99 0.02 2.99 -2 4 C-2 4.99 -2 5.98 -2 7 C-3.65 7 -5.3 7 -7 7 C-2.25 1.125 -2.25 1.125 0 0 Z " fill="#336397" transform="translate(815,77)"/>
<path d="M0 0 C5.75 1.75 5.75 1.75 8 4 C5.69 4.33 3.38 4.66 1 5 C0.67 3.35 0.34 1.7 0 0 Z " fill="#33679F" transform="translate(227,67)"/>
<path d="M0 0 C0.66 0.33 1.32 0.66 2 1 C-1.96 4.465 -1.96 4.465 -6 8 C-6 5 -6 5 -4.6875 3.61328125 C-3.125 2.40885417 -1.5625 1.20442708 0 0 Z " fill="#346596" transform="translate(773,23)"/>
<path d="M0 0 C0.66 0 1.32 0 2 0 C3.125 3.75 3.125 3.75 2 6 C1.01 6 0.02 6 -1 6 C-1.33 5.01 -1.66 4.02 -2 3 C-1.34 2.01 -0.68 1.02 0 0 Z " fill="#285DB2" transform="translate(663,247)"/>
<path d="M0 0 C2 1 2 1 4 3 C4.49986848 5.84227545 4.2791285 8.06915075 4 11 C3.34 11.66 2.68 12.32 2 13 C1.67 12.01 1.34 11.02 1 10 C1.33 9.67 1.66 9.34 2 9 C2.29356154 5.37940768 1.85064319 3.12296038 0 0 Z " fill="#386490" transform="translate(717,243)"/>
<path d="M0 0 C1.98 0 3.96 0 6 0 C5.67 2.64 5.34 5.28 5 8 C4.67 8 4.34 8 4 8 C4 6.02 4 4.04 4 2 C2.68 2 1.36 2 0 2 C0 1.34 0 0.68 0 0 Z " fill="#3C6391" transform="translate(678,229)"/>
<path d="M0 0 C0.66 0.33 1.32 0.66 2 1 C1.6875 4.375 1.6875 4.375 1 8 C0.01 8.66 -0.98 9.32 -2 10 C-1.34 7.69 -0.68 5.38 0 3 C-0.66 2.67 -1.32 2.34 -2 2 C-1.34 1.34 -0.68 0.68 0 0 Z " fill="#2F67A3" transform="translate(661,189)"/>
<path d="M0 0 C1.27118864 0.79109602 2.54193623 1.58290078 3.8125 2.375 C4.52019531 2.81585938 5.22789062 3.25671875 5.95703125 3.7109375 C7.65432039 4.78188476 9.33014358 5.88676239 11 7 C4.64285714 6.51098901 4.64285714 6.51098901 1.5625 4.0625 C0 2 0 2 0 0 Z " fill="#35639A" transform="translate(843,104)"/>
<path d="M0 0 C0.66 0.33 1.32 0.66 2 1 C3 4 3 4 2 7 C1.01 7 0.02 7 -1 7 C-0.67 4.69 -0.34 2.38 0 0 Z " fill="#3067A2" transform="translate(802,93)"/>
<path d="M0 0 C1.32 0 2.64 0 4 0 C4 2.31 4 4.62 4 7 C3.67 5.68 3.34 4.36 3 3 C1.68 3 0.36 3 -1 3 C-0.67 2.01 -0.34 1.02 0 0 Z " fill="#346395" transform="translate(902,215)"/>
<path d="M0 0 C1.32 0.33 2.64 0.66 4 1 C1.03 3.475 1.03 3.475 -2 6 C-2.66 5.34 -3.32 4.68 -4 4 C-2.68 3.67 -1.36 3.34 0 3 C0 2.01 0 1.02 0 0 Z " fill="#2E669C" transform="translate(885,186)"/>
<path d="M0 0 C1.9451 2.91765 2.45276317 4.62537285 3 8 C0.525 7.01 0.525 7.01 -2 6 C-1.34 4.02 -0.68 2.04 0 0 Z " fill="#32659F" transform="translate(742,144)"/>
<path d="M0 0 C2.62343217 2.62343217 2 3.3360952 2 7 C0.68 6.67 -0.64 6.34 -2 6 C-2 4.35 -2 2.7 -2 1 C-1.34 0.67 -0.68 0.34 0 0 Z " fill="#2763B3" transform="translate(764,75)"/>
<path d="M0 0 C1.125 3.75 1.125 3.75 0 6 C-1.65 6 -3.3 6 -5 6 C-2.25 1.125 -2.25 1.125 0 0 Z " fill="#2D67A1" transform="translate(763,72)"/>
<path d="M0 0 C-0.33 0.99 -0.66 1.98 -1 3 C-3.64 3 -6.28 3 -9 3 C-5.73209435 0.82139623 -3.91954654 0 0 0 Z " fill="#2266A9" transform="translate(745,255)"/>
<path d="M0 0 C2.64 0.66 5.28 1.32 8 2 C7.67 3.32 7.34 4.64 7 6 C5.83054208 5.19152271 4.66449539 4.37810888 3.5 3.5625 C2.8503125 3.11003906 2.200625 2.65757812 1.53125 2.19140625 C1.0259375 1.79824219 0.520625 1.40507812 0 1 C0 0.67 0 0.34 0 0 Z " fill="#356498" transform="translate(707,243)"/>
<path d="M0 0 C0.99 0.33 1.98 0.66 3 1 C3 1.99 3 2.98 3 4 C2.34 4 1.68 4 1 4 C0.67 4.99 0.34 5.98 0 7 C-0.93423645 3.98968256 -1.04449911 3.13349732 0 0 Z " fill="#2C6CB0" transform="translate(694,242)"/>
<path d="M0 0 C1 2 1 2 0.0625 5.125 C-0.288125 6.07375 -0.63875 7.0225 -1 8 C-1.99 8 -2.98 8 -4 8 C-2.25 2.25 -2.25 2.25 0 0 Z " fill="#306396" transform="translate(823,232)"/>
<path d="M0 0 C0.99 0 1.98 0 3 0 C3 1.65 3 3.3 3 5 C1.35 5 -0.3 5 -2 5 C-1.34 4.67 -0.68 4.34 0 4 C0 2.68 0 1.36 0 0 Z " fill="#316397" transform="translate(604,229)"/>
<path d="M0 0 C4.875 4.75 4.875 4.75 6 7 C4.35 7 2.7 7 1 7 C0.67 4.69 0.34 2.38 0 0 Z " fill="#2F638E" transform="translate(914,36)"/>
<path d="M0 0 C0.66 0 1.32 0 2 0 C3.6875 1.75 3.6875 1.75 5 4 C4.6875 6.25 4.6875 6.25 4 8 C0 2.25 0 2.25 0 0 Z " fill="#376399" transform="translate(455,32)"/>
<path d="" fill="#FFFFFF" transform="translate(0,0)"/>
<path d="" fill="#FFFFFF" transform="translate(0,0)"/>
<path d="" fill="#FFFFFF" transform="translate(0,0)"/>
<path d="" fill="#FFFFFF" transform="translate(0,0)"/>
<path d="" fill="#FFFFFF" transform="translate(0,0)"/>
<path d="" fill="#FFFFFF" transform="translate(0,0)"/>
<path d="" fill="#FFFFFF" transform="translate(0,0)"/>
<path d="" fill="#FFFFFF" transform="translate(0,0)"/>
<path d="" fill="#FFFFFF" transform="translate(0,0)"/>
<path d="" fill="#FFFFFF" transform="translate(0,0)"/>
<path d="" fill="#FFFFFF" transform="translate(0,0)"/>
<path d="" fill="#FFFFFF" transform="translate(0,0)"/>
<path d="" fill="#FFFFFF" transform="translate(0,0)"/>
<path d="" fill="#FFFFFF" transform="translate(0,0)"/>
<path d="" fill="#FFFFFF" transform="translate(0,0)"/>
<path d="" fill="#FFFFFF" transform="translate(0,0)"/>
<path d="" fill="#FFFFFF" transform="translate(0,0)"/>
<path d="" fill="#FFFFFF" transform="translate(0,0)"/>
<path d="" fill="#FFFFFF" transform="translate(0,0)"/>
<path d="" fill="#FFFFFF" transform="translate(0,0)"/>
<path d="" fill="#FFFFFF" transform="translate(0,0)"/>
<path d="" fill="#FFFFFF" transform="translate(0,0)"/>
<path d="" fill="#FFFFFF" transform="translate(0,0)"/>
<path d="" fill="#FFFFFF" transform="translate(0,0)"/>
<path d="" fill="#FFFFFF" transform="translate(0,0)"/>
<path d="" fill="#FFFFFF" transform="translate(0,0)"/>
<path d="" fill="#FFFFFF" transform="translate(0,0)"/>
<path d="" fill="#FFFFFF" transform="translate(0,0)"/>
<path d="" fill="#FFFFFF" transform="translate(0,0)"/>
<path d="" fill="#FFFFFF" transform="translate(0,0)"/>
<path d="" fill="#FFFFFF" transform="translate(0,0)"/>
<path d="" fill="#FFFFFF" transform="translate(0,0)"/>
<path d="" fill="#FFFFFF" transform="translate(0,0)"/>
<path d="" fill="#FFFFFF" transform="translate(0,0)"/>
<path d="" fill="#FFFFFF" transform="translate(0,0)"/>
<path d="" fill="#FFFFFF" transform="translate(0,0)"/>
<path d="" fill="#FFFFFF" transform="translate(0,0)"/>
<path d="" fill="#FFFFFF" transform="translate(0,0)"/>
<path d="" fill="#FFFFFF" transform="translate(0,0)"/>
<path d="" fill="#FFFFFF" transform="translate(0,0)"/>
<path d="" fill="#FFFFFF" transform="translate(0,0)"/>
<path d="" fill="#FFFFFF" transform="translate(0,0)"/>
<path d="" fill="#FFFFFF" transform="translate(0,0)"/>
<path d="" fill="#FFFFFF" transform="translate(0,0)"/>
<path d="" fill="#FFFFFF" transform="translate(0,0)"/>
<path d="" fill="#FFFFFF" transform="translate(0,0)"/>
<path d="" fill="#FFFFFF" transform="translate(0,0)"/>
<path d="" fill="#FFFFFF" transform="translate(0,0)"/>
<path d="" fill="#FFFFFF" transform="translate(0,0)"/>
<path d="" fill="#FFFFFF" transform="translate(0,0)"/>
<path d="" fill="#FFFFFF" transform="translate(0,0)"/>
<path d="" fill="#FFFFFF" transform="translate(0,0)"/>
<path d="" fill="#FFFFFF" transform="translate(0,0)"/>
</svg>
